ISO-10303-21;
HEADER;
FILE_DESCRIPTION(('FreeCAD Model'),'2;1');
FILE_NAME('Open CASCADE Shape Model','2026-06-25T12:48:30',('FreeCAD'),(
    'FreeCAD'),'Open CASCADE STEP processor 7.8','FreeCAD','Unknown');
FILE_SCHEMA(('AUTOMOTIVE_DESIGN { 1 0 10303 214 1 1 1 1 }'));
ENDSEC;
DATA;
#1 = APPLICATION_PROTOCOL_DEFINITION('international standard',
  'automotive_design',2000,#2);
#2 = APPLICATION_CONTEXT(
  'core data for automotive mechanical design processes');
#3 = SHAPE_DEFINITION_REPRESENTATION(#4,#10);
#4 = PRODUCT_DEFINITION_SHAPE('','',#5);
#5 = PRODUCT_DEFINITION('design','',#6,#9);
#6 = PRODUCT_DEFINITION_FORMATION('','',#7);
#7 = PRODUCT('Open CASCADE STEP translator 7.8 2',
  'Open CASCADE STEP translator 7.8 2','',(#8));
#8 = PRODUCT_CONTEXT('',#2,'mechanical');
#9 = PRODUCT_DEFINITION_CONTEXT('part definition',#2,'design');
#10 = ADVANCED_BREP_SHAPE_REPRESENTATION('',(#11,#15),#1551);
#11 = AXIS2_PLACEMENT_3D('',#12,#13,#14);
#12 = CARTESIAN_POINT('',(0.,0.,0.));
#13 = DIRECTION('',(0.,0.,1.));
#14 = DIRECTION('',(1.,0.,-0.));
#15 = MANIFOLD_SOLID_BREP('',#16);
#16 = CLOSED_SHELL('',(#17,#393,#424,#448,#472,#496,#520,#544,#568,#592,
    #616,#640,#664,#688,#712,#736,#760,#784,#808,#832,#856,#880,#904,
    #928,#952,#976,#1000,#1024,#1048,#1072,#1096,#1120,#1144,#1168,#1192
    ,#1216,#1240,#1264,#1288,#1312,#1336,#1360,#1384,#1408,#1432,#1456,
    #1480,#1497));
#17 = ADVANCED_FACE('',(#18),#388,.F.);
#18 = FACE_BOUND('',#19,.F.);
#19 = EDGE_LOOP('',(#20,#30,#38,#46,#54,#62,#70,#78,#86,#94,#102,#110,
    #118,#126,#134,#142,#150,#158,#166,#174,#182,#190,#198,#206,#214,
    #222,#230,#238,#246,#254,#262,#270,#278,#286,#294,#302,#310,#318,
    #326,#334,#342,#350,#358,#366,#374,#382));
#20 = ORIENTED_EDGE('',*,*,#21,.F.);
#21 = EDGE_CURVE('',#22,#24,#26,.T.);
#22 = VERTEX_POINT('',#23);
#23 = CARTESIAN_POINT('',(0.,-110.8908330798,-37.98472785918));
#24 = VERTEX_POINT('',#25);
#25 = CARTESIAN_POINT('',(15.940897545896,-110.8908330798,
    -37.98472785918));
#26 = LINE('',#27,#28);
#27 = CARTESIAN_POINT('',(-33.29744684635,-110.8908330798,
    -37.98472785918));
#28 = VECTOR('',#29,1.);
#29 = DIRECTION('',(1.,0.,0.));
#30 = ORIENTED_EDGE('',*,*,#31,.F.);
#31 = EDGE_CURVE('',#32,#22,#34,.T.);
#32 = VERTEX_POINT('',#33);
#33 = CARTESIAN_POINT('',(-4.492527069664E-17,-110.8908330798,
    43.788799474954));
#34 = LINE('',#35,#36);
#35 = CARTESIAN_POINT('',(0.,-110.8908330798,-48.85423971));
#36 = VECTOR('',#37,1.);
#37 = DIRECTION('',(-0.,0.,-1.));
#38 = ORIENTED_EDGE('',*,*,#39,.T.);
#39 = EDGE_CURVE('',#32,#40,#42,.T.);
#40 = VERTEX_POINT('',#41);
#41 = CARTESIAN_POINT('',(9.877119275041E-02,-110.8908330798,
    43.819773483585));
#42 = LINE('',#43,#44);
#43 = CARTESIAN_POINT('',(-0.50122880725,-110.8908330798,43.631617355656
    ));
#44 = VECTOR('',#45,1.);
#45 = DIRECTION('',(0.954182439059,0.,0.29922545512));
#46 = ORIENTED_EDGE('',*,*,#47,.T.);
#47 = EDGE_CURVE('',#40,#48,#50,.T.);
#48 = VERTEX_POINT('',#49);
#49 = CARTESIAN_POINT('',(0.69877119275,-110.8908330798,44.009867477726)
  );
#50 = LINE('',#51,#52);
#51 = CARTESIAN_POINT('',(9.877119275041E-02,-110.8908330798,
    43.819773483585));
#52 = VECTOR('',#53,1.);
#53 = DIRECTION('',(0.953299234464,0.,0.302027431817));
#54 = ORIENTED_EDGE('',*,*,#55,.T.);
#55 = EDGE_CURVE('',#48,#56,#58,.T.);
#56 = VERTEX_POINT('',#57);
#57 = CARTESIAN_POINT('',(1.29877119275,-110.8908330798,44.284189987492)
  );
#58 = LINE('',#59,#60);
#59 = CARTESIAN_POINT('',(0.69877119275,-110.8908330798,44.009867477726)
  );
#60 = VECTOR('',#61,1.);
#61 = DIRECTION('',(0.909453385384,0.,0.415805891989));
#62 = ORIENTED_EDGE('',*,*,#63,.T.);
#63 = EDGE_CURVE('',#56,#64,#66,.T.);
#64 = VERTEX_POINT('',#65);
#65 = CARTESIAN_POINT('',(1.89877119275,-110.8908330798,44.186121750187)
  );
#66 = LINE('',#67,#68);
#67 = CARTESIAN_POINT('',(1.29877119275,-110.8908330798,44.284189987492)
  );
#68 = VECTOR('',#69,1.);
#69 = DIRECTION('',(0.986904339822,0.,-0.161306614991));
#70 = ORIENTED_EDGE('',*,*,#71,.T.);
#71 = EDGE_CURVE('',#64,#72,#74,.T.);
#72 = VERTEX_POINT('',#73);
#73 = CARTESIAN_POINT('',(2.49877119275,-110.8908330798,44.196696091007)
  );
#74 = LINE('',#75,#76);
#75 = CARTESIAN_POINT('',(1.89877119275,-110.8908330798,44.186121750187)
  );
#76 = VECTOR('',#77,1.);
#77 = DIRECTION('',(0.999844735219,0.,1.762116499599E-02));
#78 = ORIENTED_EDGE('',*,*,#79,.T.);
#79 = EDGE_CURVE('',#72,#80,#82,.T.);
#80 = VERTEX_POINT('',#81);
#81 = CARTESIAN_POINT('',(3.09877119275,-110.8908330798,44.27216606171)
  );
#82 = LINE('',#83,#84);
#83 = CARTESIAN_POINT('',(2.49877119275,-110.8908330798,44.196696091007)
  );
#84 = VECTOR('',#85,1.);
#85 = DIRECTION('',(0.992181931115,0.,0.124799902122));
#86 = ORIENTED_EDGE('',*,*,#87,.T.);
#87 = EDGE_CURVE('',#80,#88,#90,.T.);
#88 = VERTEX_POINT('',#89);
#89 = CARTESIAN_POINT('',(3.69877119275,-110.8908330798,44.303767013859)
  );
#90 = LINE('',#91,#92);
#91 = CARTESIAN_POINT('',(3.09877119275,-110.8908330798,44.27216606171)
  );
#92 = VECTOR('',#93,1.);
#93 = DIRECTION('',(0.998615906417,0.,5.259535578893E-02));
#94 = ORIENTED_EDGE('',*,*,#95,.T.);
#95 = EDGE_CURVE('',#88,#96,#98,.T.);
#96 = VERTEX_POINT('',#97);
#97 = CARTESIAN_POINT('',(4.29877119275,-110.8908330798,44.233073044132)
  );
#98 = LINE('',#99,#100);
#99 = CARTESIAN_POINT('',(3.69877119275,-110.8908330798,44.303767013859)
  );
#100 = VECTOR('',#101,1.);
#101 = DIRECTION('',(0.993130280593,0.,-0.117013869985));
#102 = ORIENTED_EDGE('',*,*,#103,.T.);
#103 = EDGE_CURVE('',#96,#104,#106,.T.);
#104 = VERTEX_POINT('',#105);
#105 = CARTESIAN_POINT('',(4.89877119275,-110.8908330798,44.315272140812
    ));
#106 = LINE('',#107,#108);
#107 = CARTESIAN_POINT('',(4.29877119275,-110.8908330798,44.233073044132
    ));
#108 = VECTOR('',#109,1.);
#109 = DIRECTION('',(0.990745771008,0.,0.135730679027));
#110 = ORIENTED_EDGE('',*,*,#111,.T.);
#111 = EDGE_CURVE('',#104,#112,#114,.T.);
#112 = VERTEX_POINT('',#113);
#113 = CARTESIAN_POINT('',(5.49877119275,-110.8908330798,44.07148246796)
  );
#114 = LINE('',#115,#116);
#115 = CARTESIAN_POINT('',(4.89877119275,-110.8908330798,44.315272140812
    ));
#116 = VECTOR('',#117,1.);
#117 = DIRECTION('',(0.926445214964,0.,-0.376429626452));
#118 = ORIENTED_EDGE('',*,*,#119,.T.);
#119 = EDGE_CURVE('',#112,#120,#122,.T.);
#120 = VERTEX_POINT('',#121);
#121 = CARTESIAN_POINT('',(6.09877119275,-110.8908330798,42.991663742374
    ));
#122 = LINE('',#123,#124);
#123 = CARTESIAN_POINT('',(5.49877119275,-110.8908330798,44.07148246796)
  );
#124 = VECTOR('',#125,1.);
#125 = DIRECTION('',(0.485705226594,0.,-0.874122664652));
#126 = ORIENTED_EDGE('',*,*,#127,.T.);
#127 = EDGE_CURVE('',#120,#128,#130,.T.);
#128 = VERTEX_POINT('',#129);
#129 = CARTESIAN_POINT('',(6.69877119275,-110.8908330798,41.393839645695
    ));
#130 = LINE('',#131,#132);
#131 = CARTESIAN_POINT('',(6.09877119275,-110.8908330798,42.991663742374
    ));
#132 = VECTOR('',#133,1.);
#133 = DIRECTION('',(0.351542542072,0.,-0.936171907885));
#134 = ORIENTED_EDGE('',*,*,#135,.T.);
#135 = EDGE_CURVE('',#128,#136,#138,.T.);
#136 = VERTEX_POINT('',#137);
#137 = CARTESIAN_POINT('',(7.29877119275,-110.8908330798,40.09899406464)
  );
#138 = LINE('',#139,#140);
#139 = CARTESIAN_POINT('',(6.69877119275,-110.8908330798,41.393839645695
    ));
#140 = VECTOR('',#141,1.);
#141 = DIRECTION('',(0.420431944825,0.,-0.907324076486));
#142 = ORIENTED_EDGE('',*,*,#143,.T.);
#143 = EDGE_CURVE('',#136,#144,#146,.T.);
#144 = VERTEX_POINT('',#145);
#145 = CARTESIAN_POINT('',(7.89877119275,-110.8908330798,38.166514206242
    ));
#146 = LINE('',#147,#148);
#147 = CARTESIAN_POINT('',(7.29877119275,-110.8908330798,40.09899406464)
  );
#148 = VECTOR('',#149,1.);
#149 = DIRECTION('',(0.296518611659,0.,-0.955027074454));
#150 = ORIENTED_EDGE('',*,*,#151,.T.);
#151 = EDGE_CURVE('',#144,#152,#154,.T.);
#152 = VERTEX_POINT('',#153);
#153 = CARTESIAN_POINT('',(8.49877119275,-110.8908330798,37.093958664249
    ));
#154 = LINE('',#155,#156);
#155 = CARTESIAN_POINT('',(7.89877119275,-110.8908330798,38.166514206242
    ));
#156 = VECTOR('',#157,1.);
#157 = DIRECTION('',(0.48821239348,0.,-0.872724847161));
#158 = ORIENTED_EDGE('',*,*,#159,.T.);
#159 = EDGE_CURVE('',#152,#160,#162,.T.);
#160 = VERTEX_POINT('',#161);
#161 = CARTESIAN_POINT('',(9.09877119275,-110.8908330798,36.155863571476
    ));
#162 = LINE('',#163,#164);
#163 = CARTESIAN_POINT('',(8.49877119275,-110.8908330798,37.093958664249
    ));
#164 = VECTOR('',#165,1.);
#165 = DIRECTION('',(0.538811038752,0.,-0.842426652308));
#166 = ORIENTED_EDGE('',*,*,#167,.T.);
#167 = EDGE_CURVE('',#160,#168,#170,.T.);
#168 = VERTEX_POINT('',#169);
#169 = CARTESIAN_POINT('',(9.69877119275,-110.8908330798,35.297617721867
    ));
#170 = LINE('',#171,#172);
#171 = CARTESIAN_POINT('',(9.09877119275,-110.8908330798,36.155863571476
    ));
#172 = VECTOR('',#173,1.);
#173 = DIRECTION('',(0.57296740182,0.,-0.819578157622));
#174 = ORIENTED_EDGE('',*,*,#175,.T.);
#175 = EDGE_CURVE('',#168,#176,#178,.T.);
#176 = VERTEX_POINT('',#177);
#177 = CARTESIAN_POINT('',(10.29877119275,-110.8908330798,
    34.485453415226));
#178 = LINE('',#179,#180);
#179 = CARTESIAN_POINT('',(9.69877119275,-110.8908330798,35.297617721867
    ));
#180 = VECTOR('',#181,1.);
#181 = DIRECTION('',(0.594201883235,0.,-0.80431593417));
#182 = ORIENTED_EDGE('',*,*,#183,.T.);
#183 = EDGE_CURVE('',#176,#184,#186,.T.);
#184 = VERTEX_POINT('',#185);
#185 = CARTESIAN_POINT('',(10.89877119275,-110.8908330798,
    33.490382004093));
#186 = LINE('',#187,#188);
#187 = CARTESIAN_POINT('',(10.29877119275,-110.8908330798,
    34.485453415226));
#188 = VECTOR('',#189,1.);
#189 = DIRECTION('',(0.516365820642,0.,-0.856368109678));
#190 = ORIENTED_EDGE('',*,*,#191,.T.);
#191 = EDGE_CURVE('',#184,#192,#194,.T.);
#192 = VERTEX_POINT('',#193);
#193 = CARTESIAN_POINT('',(11.49877119275,-110.8908330798,
    30.519968796085));
#194 = LINE('',#195,#196);
#195 = CARTESIAN_POINT('',(10.89877119275,-110.8908330798,
    33.490382004093));
#196 = VECTOR('',#197,1.);
#197 = DIRECTION('',(0.197993335775,0.,-0.980203366138));
#198 = ORIENTED_EDGE('',*,*,#199,.T.);
#199 = EDGE_CURVE('',#192,#200,#202,.T.);
#200 = VERTEX_POINT('',#201);
#201 = CARTESIAN_POINT('',(12.09877119275,-110.8908330798,
    27.121577072452));
#202 = LINE('',#203,#204);
#203 = CARTESIAN_POINT('',(11.49877119275,-110.8908330798,
    30.519968796085));
#204 = VECTOR('',#205,1.);
#205 = DIRECTION('',(0.173865091611,0.,-0.984769480599));
#206 = ORIENTED_EDGE('',*,*,#207,.T.);
#207 = EDGE_CURVE('',#200,#208,#210,.T.);
#208 = VERTEX_POINT('',#209);
#209 = CARTESIAN_POINT('',(12.69877119275,-110.8908330798,
    23.841547775577));
#210 = LINE('',#211,#212);
#211 = CARTESIAN_POINT('',(12.09877119275,-110.8908330798,
    27.121577072452));
#212 = VECTOR('',#213,1.);
#213 = DIRECTION('',(0.179939433857,0.,-0.983677691189));
#214 = ORIENTED_EDGE('',*,*,#215,.T.);
#215 = EDGE_CURVE('',#208,#216,#218,.T.);
#216 = VERTEX_POINT('',#217);
#217 = CARTESIAN_POINT('',(13.29877119275,-110.8908330798,
    20.925715256046));
#218 = LINE('',#219,#220);
#219 = CARTESIAN_POINT('',(12.69877119275,-110.8908330798,
    23.841547775577));
#220 = VECTOR('',#221,1.);
#221 = DIRECTION('',(0.201550293486,0.,-0.979478166778));
#222 = ORIENTED_EDGE('',*,*,#223,.T.);
#223 = EDGE_CURVE('',#216,#224,#226,.T.);
#224 = VERTEX_POINT('',#225);
#225 = CARTESIAN_POINT('',(13.89877119275,-110.8908330798,
    18.649866867374));
#226 = LINE('',#227,#228);
#227 = CARTESIAN_POINT('',(13.29877119275,-110.8908330798,
    20.925715256046));
#228 = VECTOR('',#229,1.);
#229 = DIRECTION('',(0.254927402098,0.,-0.966960195489));
#230 = ORIENTED_EDGE('',*,*,#231,.T.);
#231 = EDGE_CURVE('',#224,#232,#234,.T.);
#232 = VERTEX_POINT('',#233);
#233 = CARTESIAN_POINT('',(14.49877119275,-110.8908330798,18.57441215546
    ));
#234 = LINE('',#235,#236);
#235 = CARTESIAN_POINT('',(13.89877119275,-110.8908330798,
    18.649866867374));
#236 = VECTOR('',#237,1.);
#237 = DIRECTION('',(0.992185055207,0.,-0.12477506251));
#238 = ORIENTED_EDGE('',*,*,#239,.T.);
#239 = EDGE_CURVE('',#232,#240,#242,.T.);
#240 = VERTEX_POINT('',#241);
#241 = CARTESIAN_POINT('',(15.09877119275,-110.8908330798,
    18.366144943546));
#242 = LINE('',#243,#244);
#243 = CARTESIAN_POINT('',(14.49877119275,-110.8908330798,18.57441215546
    ));
#244 = VECTOR('',#245,1.);
#245 = DIRECTION('',(0.944705919244,0.,-0.327918779799));
#246 = ORIENTED_EDGE('',*,*,#247,.T.);
#247 = EDGE_CURVE('',#240,#248,#250,.T.);
#248 = VERTEX_POINT('',#249);
#249 = CARTESIAN_POINT('',(15.69877119275,-110.8908330798,
    18.528864670109));
#250 = LINE('',#251,#252);
#251 = CARTESIAN_POINT('',(15.09877119275,-110.8908330798,
    18.366144943546));
#252 = VECTOR('',#253,1.);
#253 = DIRECTION('',(0.965137133011,0.,0.261744750631));
#254 = ORIENTED_EDGE('',*,*,#255,.T.);
#255 = EDGE_CURVE('',#248,#256,#258,.T.);
#256 = VERTEX_POINT('',#257);
#257 = CARTESIAN_POINT('',(16.29877119275,-110.8908330798,
    18.394556808781));
#258 = LINE('',#259,#260);
#259 = CARTESIAN_POINT('',(15.69877119275,-110.8908330798,
    18.528864670109));
#260 = VECTOR('',#261,1.);
#261 = DIRECTION('',(0.975850246978,0.,-0.218440599414));
#262 = ORIENTED_EDGE('',*,*,#263,.T.);
#263 = EDGE_CURVE('',#256,#264,#266,.T.);
#264 = VERTEX_POINT('',#265);
#265 = CARTESIAN_POINT('',(16.89877119275,-110.8908330798,
    18.468363571476));
#266 = LINE('',#267,#268);
#267 = CARTESIAN_POINT('',(16.29877119275,-110.8908330798,
    18.394556808781));
#268 = VECTOR('',#269,1.);
#269 = DIRECTION('',(0.992518908955,0.,0.12209101264));
#270 = ORIENTED_EDGE('',*,*,#271,.T.);
#271 = EDGE_CURVE('',#264,#272,#274,.T.);
#272 = VERTEX_POINT('',#273);
#273 = CARTESIAN_POINT('',(17.49877119275,-110.8908330798,
    18.345621872257));
#274 = LINE('',#275,#276);
#275 = CARTESIAN_POINT('',(16.89877119275,-110.8908330798,
    18.468363571476));
#276 = VECTOR('',#277,1.);
#277 = DIRECTION('',(0.979710307185,0.,-0.20041884641));
#278 = ORIENTED_EDGE('',*,*,#279,.T.);
#279 = EDGE_CURVE('',#272,#280,#282,.T.);
#280 = VERTEX_POINT('',#281);
#281 = CARTESIAN_POINT('',(18.09877119275,-110.8908330798,
    17.894938278507));
#282 = LINE('',#283,#284);
#283 = CARTESIAN_POINT('',(17.49877119275,-110.8908330798,
    18.345621872257));
#284 = VECTOR('',#285,1.);
#285 = DIRECTION('',(0.799562526802,0.,-0.600582855012));
#286 = ORIENTED_EDGE('',*,*,#287,.T.);
#287 = EDGE_CURVE('',#280,#288,#290,.T.);
#288 = VERTEX_POINT('',#289);
#289 = CARTESIAN_POINT('',(18.69877119275,-110.8908330798,
    18.168635177921));
#290 = LINE('',#291,#292);
#291 = CARTESIAN_POINT('',(18.09877119275,-110.8908330798,
    17.894938278507));
#292 = VECTOR('',#293,1.);
#293 = DIRECTION('',(0.909811783207,0.,0.415021106857));
#294 = ORIENTED_EDGE('',*,*,#295,.T.);
#295 = EDGE_CURVE('',#288,#296,#298,.T.);
#296 = VERTEX_POINT('',#297);
#297 = CARTESIAN_POINT('',(19.29877119275,-110.8908330798,
    17.736628341984));
#298 = LINE('',#299,#300);
#299 = CARTESIAN_POINT('',(18.69877119275,-110.8908330798,
    18.168635177921));
#300 = VECTOR('',#301,1.);
#301 = DIRECTION('',(0.811529957155,0.,-0.584310815098));
#302 = ORIENTED_EDGE('',*,*,#303,.T.);
#303 = EDGE_CURVE('',#296,#304,#306,.T.);
#304 = VERTEX_POINT('',#305);
#305 = CARTESIAN_POINT('',(19.89877119275,-110.8908330798,
    17.379130173038));
#306 = LINE('',#307,#308);
#307 = CARTESIAN_POINT('',(19.29877119275,-110.8908330798,
    17.736628341984));
#308 = VECTOR('',#309,1.);
#309 = DIRECTION('',(0.859069208542,0.,-0.511859448418));
#310 = ORIENTED_EDGE('',*,*,#311,.T.);
#311 = EDGE_CURVE('',#304,#312,#314,.T.);
#312 = VERTEX_POINT('',#313);
#313 = CARTESIAN_POINT('',(20.49877119275,-110.8908330798,
    16.249735641788));
#314 = LINE('',#315,#316);
#315 = CARTESIAN_POINT('',(19.89877119275,-110.8908330798,
    17.379130173038));
#316 = VECTOR('',#317,1.);
#317 = DIRECTION('',(0.469160809073,0.,-0.883112753407));
#318 = ORIENTED_EDGE('',*,*,#319,.T.);
#319 = EDGE_CURVE('',#312,#320,#322,.T.);
#320 = VERTEX_POINT('',#321);
#321 = CARTESIAN_POINT('',(20.49877119275,-110.8908330798,
    11.842005539249));
#322 = LINE('',#323,#324);
#323 = CARTESIAN_POINT('',(20.49877119275,-110.8908330798,
    16.249735641788));
#324 = VECTOR('',#325,1.);
#325 = DIRECTION('',(0.,0.,-1.));
#326 = ORIENTED_EDGE('',*,*,#327,.T.);
#327 = EDGE_CURVE('',#320,#328,#330,.T.);
#328 = VERTEX_POINT('',#329);
#329 = CARTESIAN_POINT('',(19.89877119275,-110.8908330798,
    10.722773361515));
#330 = LINE('',#331,#332);
#331 = CARTESIAN_POINT('',(20.49877119275,-110.8908330798,
    11.842005539249));
#332 = VECTOR('',#333,1.);
#333 = DIRECTION('',(-0.47247307091,0.,-0.881345106792));
#334 = ORIENTED_EDGE('',*,*,#335,.T.);
#335 = EDGE_CURVE('',#328,#336,#338,.T.);
#336 = VERTEX_POINT('',#337);
#337 = CARTESIAN_POINT('',(19.29877119275,-110.8908330798,
    10.263247299503));
#338 = LINE('',#339,#340);
#339 = CARTESIAN_POINT('',(19.89877119275,-110.8908330798,
    10.722773361515));
#340 = VECTOR('',#341,1.);
#341 = DIRECTION('',(-0.793909064421,0.,-0.608036509948));
#342 = ORIENTED_EDGE('',*,*,#343,.T.);
#343 = EDGE_CURVE('',#336,#344,#346,.T.);
#344 = VERTEX_POINT('',#345);
#345 = CARTESIAN_POINT('',(18.69877119275,-110.8908330798,9.905535507511
    ));
#346 = LINE('',#347,#348);
#347 = CARTESIAN_POINT('',(19.29877119275,-110.8908330798,
    10.263247299503));
#348 = VECTOR('',#349,1.);
#349 = DIRECTION('',(-0.858934705651,0.,-0.512085121271));
#350 = ORIENTED_EDGE('',*,*,#351,.T.);
#351 = EDGE_CURVE('',#344,#352,#354,.T.);
#352 = VERTEX_POINT('',#353);
#353 = CARTESIAN_POINT('',(18.09877119275,-110.8908330798,9.53169517548)
  );
#354 = LINE('',#355,#356);
#355 = CARTESIAN_POINT('',(18.69877119275,-110.8908330798,9.905535507511
    ));
#356 = VECTOR('',#357,1.);
#357 = DIRECTION('',(-0.848734749827,0.,-0.528818801137));
#358 = ORIENTED_EDGE('',*,*,#359,.T.);
#359 = EDGE_CURVE('',#352,#360,#362,.T.);
#360 = VERTEX_POINT('',#361);
#361 = CARTESIAN_POINT('',(17.49877119275,-110.8908330798,8.968066025089
    ));
#362 = LINE('',#363,#364);
#363 = CARTESIAN_POINT('',(18.09877119275,-110.8908330798,9.53169517548)
  );
#364 = VECTOR('',#365,1.);
#365 = DIRECTION('',(-0.72885244469,0.,-0.684670806935));
#366 = ORIENTED_EDGE('',*,*,#367,.T.);
#367 = EDGE_CURVE('',#360,#368,#370,.T.);
#368 = VERTEX_POINT('',#369);
#369 = CARTESIAN_POINT('',(16.89877119275,-110.8908330798,1.670832443546
    ));
#370 = LINE('',#371,#372);
#371 = CARTESIAN_POINT('',(17.49877119275,-110.8908330798,8.968066025089
    ));
#372 = VECTOR('',#373,1.);
#373 = DIRECTION('',(-8.194640283563E-02,0.,-0.996636737765));
#374 = ORIENTED_EDGE('',*,*,#375,.T.);
#375 = EDGE_CURVE('',#368,#376,#378,.T.);
#376 = VERTEX_POINT('',#377);
#377 = CARTESIAN_POINT('',(16.29877119275,-110.8908330798,0.985255050968
    ));
#378 = LINE('',#379,#380);
#379 = CARTESIAN_POINT('',(16.89877119275,-110.8908330798,1.670832443546
    ));
#380 = VECTOR('',#381,1.);
#381 = DIRECTION('',(-0.658579068914,0.,-0.752511534788));
#382 = ORIENTED_EDGE('',*,*,#383,.T.);
#383 = EDGE_CURVE('',#376,#24,#384,.T.);
#384 = LINE('',#385,#386);
#385 = CARTESIAN_POINT('',(16.29877119275,-110.8908330798,0.985255050968
    ));
#386 = VECTOR('',#387,1.);
#387 = DIRECTION('',(-9.182928263126E-03,0.,-0.999957836025));
#388 = PLANE('',#389);
#389 = AXIS2_PLACEMENT_3D('',#390,#391,#392);
#390 = CARTESIAN_POINT('',(0.106335114538,-110.8908330798,
    -29.72375156081));
#391 = DIRECTION('',(0.,1.,0.));
#392 = DIRECTION('',(0.,-0.,1.));
#393 = ADVANCED_FACE('',(#394),#419,.F.);
#394 = FACE_BOUND('',#395,.F.);
#395 = EDGE_LOOP('',(#396,#404,#405,#413));
#396 = ORIENTED_EDGE('',*,*,#397,.F.);
#397 = EDGE_CURVE('',#22,#398,#400,.T.);
#398 = VERTEX_POINT('',#399);
#399 = CARTESIAN_POINT('',(0.,110.89083307981,-37.98472785918));
#400 = LINE('',#401,#402);
#401 = CARTESIAN_POINT('',(0.,-150.8908330798,-37.98472785918));
#402 = VECTOR('',#403,1.);
#403 = DIRECTION('',(-0.,1.,0.));
#404 = ORIENTED_EDGE('',*,*,#21,.T.);
#405 = ORIENTED_EDGE('',*,*,#406,.T.);
#406 = EDGE_CURVE('',#24,#407,#409,.T.);
#407 = VERTEX_POINT('',#408);
#408 = CARTESIAN_POINT('',(15.940897545896,110.89083307981,
    -37.98472785918));
#409 = LINE('',#410,#411);
#410 = CARTESIAN_POINT('',(15.940897545896,-135.8908330798,
    -37.98472785918));
#411 = VECTOR('',#412,1.);
#412 = DIRECTION('',(0.,1.,-0.));
#413 = ORIENTED_EDGE('',*,*,#414,.F.);
#414 = EDGE_CURVE('',#398,#407,#415,.T.);
#415 = LINE('',#416,#417);
#416 = CARTESIAN_POINT('',(-33.29744684635,110.89083307981,
    -37.98472785918));
#417 = VECTOR('',#418,1.);
#418 = DIRECTION('',(1.,0.,0.));
#419 = PLANE('',#420);
#420 = AXIS2_PLACEMENT_3D('',#421,#422,#423);
#421 = CARTESIAN_POINT('',(-66.70122880725,-160.8908330798,
    -37.98472785918));
#422 = DIRECTION('',(0.,0.,1.));
#423 = DIRECTION('',(1.,0.,-0.));
#424 = ADVANCED_FACE('',(#425),#443,.F.);
#425 = FACE_BOUND('',#426,.F.);
#426 = EDGE_LOOP('',(#427,#428,#436,#442));
#427 = ORIENTED_EDGE('',*,*,#383,.F.);
#428 = ORIENTED_EDGE('',*,*,#429,.T.);
#429 = EDGE_CURVE('',#376,#430,#432,.T.);
#430 = VERTEX_POINT('',#431);
#431 = CARTESIAN_POINT('',(16.29877119275,110.89083307981,0.985255050968
    ));
#432 = LINE('',#433,#434);
#433 = CARTESIAN_POINT('',(16.29877119275,-110.8908330798,0.985255050968
    ));
#434 = VECTOR('',#435,1.);
#435 = DIRECTION('',(0.,1.,0.));
#436 = ORIENTED_EDGE('',*,*,#437,.T.);
#437 = EDGE_CURVE('',#430,#407,#438,.T.);
#438 = LINE('',#439,#440);
#439 = CARTESIAN_POINT('',(16.29877119275,110.89083307981,0.985255050968
    ));
#440 = VECTOR('',#441,1.);
#441 = DIRECTION('',(-9.182928263126E-03,0.,-0.999957836025));
#442 = ORIENTED_EDGE('',*,*,#406,.F.);
#443 = PLANE('',#444);
#444 = AXIS2_PLACEMENT_3D('',#445,#446,#447);
#445 = CARTESIAN_POINT('',(16.29877119275,-110.8908330798,0.985255050968
    ));
#446 = DIRECTION('',(-0.999957836025,0.,9.182928263126E-03));
#447 = DIRECTION('',(-9.182928263126E-03,0.,-0.999957836025));
#448 = ADVANCED_FACE('',(#449),#467,.F.);
#449 = FACE_BOUND('',#450,.F.);
#450 = EDGE_LOOP('',(#451,#459,#465,#466));
#451 = ORIENTED_EDGE('',*,*,#452,.T.);
#452 = EDGE_CURVE('',#368,#453,#455,.T.);
#453 = VERTEX_POINT('',#454);
#454 = CARTESIAN_POINT('',(16.89877119275,110.89083307981,1.670832443546
    ));
#455 = LINE('',#456,#457);
#456 = CARTESIAN_POINT('',(16.89877119275,-110.8908330798,1.670832443546
    ));
#457 = VECTOR('',#458,1.);
#458 = DIRECTION('',(0.,1.,0.));
#459 = ORIENTED_EDGE('',*,*,#460,.T.);
#460 = EDGE_CURVE('',#453,#430,#461,.T.);
#461 = LINE('',#462,#463);
#462 = CARTESIAN_POINT('',(16.89877119275,110.89083307981,1.670832443546
    ));
#463 = VECTOR('',#464,1.);
#464 = DIRECTION('',(-0.658579068914,0.,-0.752511534788));
#465 = ORIENTED_EDGE('',*,*,#429,.F.);
#466 = ORIENTED_EDGE('',*,*,#375,.F.);
#467 = PLANE('',#468);
#468 = AXIS2_PLACEMENT_3D('',#469,#470,#471);
#469 = CARTESIAN_POINT('',(16.89877119275,-110.8908330798,1.670832443546
    ));
#470 = DIRECTION('',(-0.752511534788,0.,0.658579068914));
#471 = DIRECTION('',(-0.658579068914,0.,-0.752511534788));
#472 = ADVANCED_FACE('',(#473),#491,.F.);
#473 = FACE_BOUND('',#474,.F.);
#474 = EDGE_LOOP('',(#475,#483,#489,#490));
#475 = ORIENTED_EDGE('',*,*,#476,.T.);
#476 = EDGE_CURVE('',#360,#477,#479,.T.);
#477 = VERTEX_POINT('',#478);
#478 = CARTESIAN_POINT('',(17.49877119275,110.89083307981,8.968066025089
    ));
#479 = LINE('',#480,#481);
#480 = CARTESIAN_POINT('',(17.49877119275,-110.8908330798,8.968066025089
    ));
#481 = VECTOR('',#482,1.);
#482 = DIRECTION('',(0.,1.,0.));
#483 = ORIENTED_EDGE('',*,*,#484,.T.);
#484 = EDGE_CURVE('',#477,#453,#485,.T.);
#485 = LINE('',#486,#487);
#486 = CARTESIAN_POINT('',(17.49877119275,110.89083307981,8.968066025089
    ));
#487 = VECTOR('',#488,1.);
#488 = DIRECTION('',(-8.194640283563E-02,0.,-0.996636737765));
#489 = ORIENTED_EDGE('',*,*,#452,.F.);
#490 = ORIENTED_EDGE('',*,*,#367,.F.);
#491 = PLANE('',#492);
#492 = AXIS2_PLACEMENT_3D('',#493,#494,#495);
#493 = CARTESIAN_POINT('',(17.49877119275,-110.8908330798,8.968066025089
    ));
#494 = DIRECTION('',(-0.996636737765,0.,8.194640283563E-02));
#495 = DIRECTION('',(-8.194640283563E-02,0.,-0.996636737765));
#496 = ADVANCED_FACE('',(#497),#515,.F.);
#497 = FACE_BOUND('',#498,.F.);
#498 = EDGE_LOOP('',(#499,#507,#513,#514));
#499 = ORIENTED_EDGE('',*,*,#500,.T.);
#500 = EDGE_CURVE('',#352,#501,#503,.T.);
#501 = VERTEX_POINT('',#502);
#502 = CARTESIAN_POINT('',(18.09877119275,110.89083307981,9.53169517548)
  );
#503 = LINE('',#504,#505);
#504 = CARTESIAN_POINT('',(18.09877119275,-110.8908330798,9.53169517548)
  );
#505 = VECTOR('',#506,1.);
#506 = DIRECTION('',(0.,1.,0.));
#507 = ORIENTED_EDGE('',*,*,#508,.T.);
#508 = EDGE_CURVE('',#501,#477,#509,.T.);
#509 = LINE('',#510,#511);
#510 = CARTESIAN_POINT('',(18.09877119275,110.89083307981,9.53169517548)
  );
#511 = VECTOR('',#512,1.);
#512 = DIRECTION('',(-0.72885244469,0.,-0.684670806935));
#513 = ORIENTED_EDGE('',*,*,#476,.F.);
#514 = ORIENTED_EDGE('',*,*,#359,.F.);
#515 = PLANE('',#516);
#516 = AXIS2_PLACEMENT_3D('',#517,#518,#519);
#517 = CARTESIAN_POINT('',(18.09877119275,-110.8908330798,9.53169517548)
  );
#518 = DIRECTION('',(-0.684670806935,0.,0.72885244469));
#519 = DIRECTION('',(-0.72885244469,0.,-0.684670806935));
#520 = ADVANCED_FACE('',(#521),#539,.F.);
#521 = FACE_BOUND('',#522,.F.);
#522 = EDGE_LOOP('',(#523,#531,#537,#538));
#523 = ORIENTED_EDGE('',*,*,#524,.T.);
#524 = EDGE_CURVE('',#344,#525,#527,.T.);
#525 = VERTEX_POINT('',#526);
#526 = CARTESIAN_POINT('',(18.69877119275,110.89083307981,9.905535507511
    ));
#527 = LINE('',#528,#529);
#528 = CARTESIAN_POINT('',(18.69877119275,-110.8908330798,9.905535507511
    ));
#529 = VECTOR('',#530,1.);
#530 = DIRECTION('',(0.,1.,0.));
#531 = ORIENTED_EDGE('',*,*,#532,.T.);
#532 = EDGE_CURVE('',#525,#501,#533,.T.);
#533 = LINE('',#534,#535);
#534 = CARTESIAN_POINT('',(18.69877119275,110.89083307981,9.905535507511
    ));
#535 = VECTOR('',#536,1.);
#536 = DIRECTION('',(-0.848734749827,0.,-0.528818801137));
#537 = ORIENTED_EDGE('',*,*,#500,.F.);
#538 = ORIENTED_EDGE('',*,*,#351,.F.);
#539 = PLANE('',#540);
#540 = AXIS2_PLACEMENT_3D('',#541,#542,#543);
#541 = CARTESIAN_POINT('',(18.69877119275,-110.8908330798,9.905535507511
    ));
#542 = DIRECTION('',(-0.528818801137,0.,0.848734749827));
#543 = DIRECTION('',(-0.848734749827,0.,-0.528818801137));
#544 = ADVANCED_FACE('',(#545),#563,.F.);
#545 = FACE_BOUND('',#546,.F.);
#546 = EDGE_LOOP('',(#547,#555,#561,#562));
#547 = ORIENTED_EDGE('',*,*,#548,.T.);
#548 = EDGE_CURVE('',#336,#549,#551,.T.);
#549 = VERTEX_POINT('',#550);
#550 = CARTESIAN_POINT('',(19.29877119275,110.89083307981,
    10.263247299503));
#551 = LINE('',#552,#553);
#552 = CARTESIAN_POINT('',(19.29877119275,-110.8908330798,
    10.263247299503));
#553 = VECTOR('',#554,1.);
#554 = DIRECTION('',(0.,1.,0.));
#555 = ORIENTED_EDGE('',*,*,#556,.T.);
#556 = EDGE_CURVE('',#549,#525,#557,.T.);
#557 = LINE('',#558,#559);
#558 = CARTESIAN_POINT('',(19.29877119275,110.89083307981,
    10.263247299503));
#559 = VECTOR('',#560,1.);
#560 = DIRECTION('',(-0.858934705651,0.,-0.512085121271));
#561 = ORIENTED_EDGE('',*,*,#524,.F.);
#562 = ORIENTED_EDGE('',*,*,#343,.F.);
#563 = PLANE('',#564);
#564 = AXIS2_PLACEMENT_3D('',#565,#566,#567);
#565 = CARTESIAN_POINT('',(19.29877119275,-110.8908330798,
    10.263247299503));
#566 = DIRECTION('',(-0.512085121271,0.,0.858934705651));
#567 = DIRECTION('',(-0.858934705651,0.,-0.512085121271));
#568 = ADVANCED_FACE('',(#569),#587,.F.);
#569 = FACE_BOUND('',#570,.F.);
#570 = EDGE_LOOP('',(#571,#579,#585,#586));
#571 = ORIENTED_EDGE('',*,*,#572,.T.);
#572 = EDGE_CURVE('',#328,#573,#575,.T.);
#573 = VERTEX_POINT('',#574);
#574 = CARTESIAN_POINT('',(19.89877119275,110.89083307981,
    10.722773361515));
#575 = LINE('',#576,#577);
#576 = CARTESIAN_POINT('',(19.89877119275,-110.8908330798,
    10.722773361515));
#577 = VECTOR('',#578,1.);
#578 = DIRECTION('',(0.,1.,0.));
#579 = ORIENTED_EDGE('',*,*,#580,.T.);
#580 = EDGE_CURVE('',#573,#549,#581,.T.);
#581 = LINE('',#582,#583);
#582 = CARTESIAN_POINT('',(19.89877119275,110.89083307981,
    10.722773361515));
#583 = VECTOR('',#584,1.);
#584 = DIRECTION('',(-0.793909064421,0.,-0.608036509948));
#585 = ORIENTED_EDGE('',*,*,#548,.F.);
#586 = ORIENTED_EDGE('',*,*,#335,.F.);
#587 = PLANE('',#588);
#588 = AXIS2_PLACEMENT_3D('',#589,#590,#591);
#589 = CARTESIAN_POINT('',(19.89877119275,-110.8908330798,
    10.722773361515));
#590 = DIRECTION('',(-0.608036509948,0.,0.793909064421));
#591 = DIRECTION('',(-0.793909064421,0.,-0.608036509948));
#592 = ADVANCED_FACE('',(#593),#611,.F.);
#593 = FACE_BOUND('',#594,.F.);
#594 = EDGE_LOOP('',(#595,#603,#609,#610));
#595 = ORIENTED_EDGE('',*,*,#596,.T.);
#596 = EDGE_CURVE('',#320,#597,#599,.T.);
#597 = VERTEX_POINT('',#598);
#598 = CARTESIAN_POINT('',(20.49877119275,110.89083307981,
    11.842005539249));
#599 = LINE('',#600,#601);
#600 = CARTESIAN_POINT('',(20.49877119275,-110.8908330798,
    11.842005539249));
#601 = VECTOR('',#602,1.);
#602 = DIRECTION('',(0.,1.,0.));
#603 = ORIENTED_EDGE('',*,*,#604,.T.);
#604 = EDGE_CURVE('',#597,#573,#605,.T.);
#605 = LINE('',#606,#607);
#606 = CARTESIAN_POINT('',(20.49877119275,110.89083307981,
    11.842005539249));
#607 = VECTOR('',#608,1.);
#608 = DIRECTION('',(-0.47247307091,0.,-0.881345106792));
#609 = ORIENTED_EDGE('',*,*,#572,.F.);
#610 = ORIENTED_EDGE('',*,*,#327,.F.);
#611 = PLANE('',#612);
#612 = AXIS2_PLACEMENT_3D('',#613,#614,#615);
#613 = CARTESIAN_POINT('',(20.49877119275,-110.8908330798,
    11.842005539249));
#614 = DIRECTION('',(-0.881345106792,0.,0.47247307091));
#615 = DIRECTION('',(-0.47247307091,0.,-0.881345106792));
#616 = ADVANCED_FACE('',(#617),#635,.F.);
#617 = FACE_BOUND('',#618,.F.);
#618 = EDGE_LOOP('',(#619,#627,#633,#634));
#619 = ORIENTED_EDGE('',*,*,#620,.T.);
#620 = EDGE_CURVE('',#312,#621,#623,.T.);
#621 = VERTEX_POINT('',#622);
#622 = CARTESIAN_POINT('',(20.49877119275,110.89083307981,
    16.249735641788));
#623 = LINE('',#624,#625);
#624 = CARTESIAN_POINT('',(20.49877119275,-110.8908330798,
    16.249735641788));
#625 = VECTOR('',#626,1.);
#626 = DIRECTION('',(0.,1.,0.));
#627 = ORIENTED_EDGE('',*,*,#628,.T.);
#628 = EDGE_CURVE('',#621,#597,#629,.T.);
#629 = LINE('',#630,#631);
#630 = CARTESIAN_POINT('',(20.49877119275,110.89083307981,
    16.249735641788));
#631 = VECTOR('',#632,1.);
#632 = DIRECTION('',(0.,0.,-1.));
#633 = ORIENTED_EDGE('',*,*,#596,.F.);
#634 = ORIENTED_EDGE('',*,*,#319,.F.);
#635 = PLANE('',#636);
#636 = AXIS2_PLACEMENT_3D('',#637,#638,#639);
#637 = CARTESIAN_POINT('',(20.49877119275,-110.8908330798,
    16.249735641788));
#638 = DIRECTION('',(-1.,0.,0.));
#639 = DIRECTION('',(0.,0.,-1.));
#640 = ADVANCED_FACE('',(#641),#659,.F.);
#641 = FACE_BOUND('',#642,.F.);
#642 = EDGE_LOOP('',(#643,#651,#657,#658));
#643 = ORIENTED_EDGE('',*,*,#644,.T.);
#644 = EDGE_CURVE('',#304,#645,#647,.T.);
#645 = VERTEX_POINT('',#646);
#646 = CARTESIAN_POINT('',(19.89877119275,110.89083307981,
    17.379130173038));
#647 = LINE('',#648,#649);
#648 = CARTESIAN_POINT('',(19.89877119275,-110.8908330798,
    17.379130173038));
#649 = VECTOR('',#650,1.);
#650 = DIRECTION('',(0.,1.,0.));
#651 = ORIENTED_EDGE('',*,*,#652,.T.);
#652 = EDGE_CURVE('',#645,#621,#653,.T.);
#653 = LINE('',#654,#655);
#654 = CARTESIAN_POINT('',(19.89877119275,110.89083307981,
    17.379130173038));
#655 = VECTOR('',#656,1.);
#656 = DIRECTION('',(0.469160809073,0.,-0.883112753407));
#657 = ORIENTED_EDGE('',*,*,#620,.F.);
#658 = ORIENTED_EDGE('',*,*,#311,.F.);
#659 = PLANE('',#660);
#660 = AXIS2_PLACEMENT_3D('',#661,#662,#663);
#661 = CARTESIAN_POINT('',(19.89877119275,-110.8908330798,
    17.379130173038));
#662 = DIRECTION('',(-0.883112753407,0.,-0.469160809073));
#663 = DIRECTION('',(0.469160809073,0.,-0.883112753407));
#664 = ADVANCED_FACE('',(#665),#683,.F.);
#665 = FACE_BOUND('',#666,.F.);
#666 = EDGE_LOOP('',(#667,#675,#681,#682));
#667 = ORIENTED_EDGE('',*,*,#668,.T.);
#668 = EDGE_CURVE('',#296,#669,#671,.T.);
#669 = VERTEX_POINT('',#670);
#670 = CARTESIAN_POINT('',(19.29877119275,110.89083307981,
    17.736628341984));
#671 = LINE('',#672,#673);
#672 = CARTESIAN_POINT('',(19.29877119275,-110.8908330798,
    17.736628341984));
#673 = VECTOR('',#674,1.);
#674 = DIRECTION('',(0.,1.,0.));
#675 = ORIENTED_EDGE('',*,*,#676,.T.);
#676 = EDGE_CURVE('',#669,#645,#677,.T.);
#677 = LINE('',#678,#679);
#678 = CARTESIAN_POINT('',(19.29877119275,110.89083307981,
    17.736628341984));
#679 = VECTOR('',#680,1.);
#680 = DIRECTION('',(0.859069208542,0.,-0.511859448418));
#681 = ORIENTED_EDGE('',*,*,#644,.F.);
#682 = ORIENTED_EDGE('',*,*,#303,.F.);
#683 = PLANE('',#684);
#684 = AXIS2_PLACEMENT_3D('',#685,#686,#687);
#685 = CARTESIAN_POINT('',(19.29877119275,-110.8908330798,
    17.736628341984));
#686 = DIRECTION('',(-0.511859448418,0.,-0.859069208542));
#687 = DIRECTION('',(0.859069208542,0.,-0.511859448418));
#688 = ADVANCED_FACE('',(#689),#707,.F.);
#689 = FACE_BOUND('',#690,.F.);
#690 = EDGE_LOOP('',(#691,#699,#705,#706));
#691 = ORIENTED_EDGE('',*,*,#692,.T.);
#692 = EDGE_CURVE('',#288,#693,#695,.T.);
#693 = VERTEX_POINT('',#694);
#694 = CARTESIAN_POINT('',(18.69877119275,110.89083307981,
    18.168635177921));
#695 = LINE('',#696,#697);
#696 = CARTESIAN_POINT('',(18.69877119275,-110.8908330798,
    18.168635177921));
#697 = VECTOR('',#698,1.);
#698 = DIRECTION('',(0.,1.,0.));
#699 = ORIENTED_EDGE('',*,*,#700,.T.);
#700 = EDGE_CURVE('',#693,#669,#701,.T.);
#701 = LINE('',#702,#703);
#702 = CARTESIAN_POINT('',(18.69877119275,110.89083307981,
    18.168635177921));
#703 = VECTOR('',#704,1.);
#704 = DIRECTION('',(0.811529957155,0.,-0.584310815098));
#705 = ORIENTED_EDGE('',*,*,#668,.F.);
#706 = ORIENTED_EDGE('',*,*,#295,.F.);
#707 = PLANE('',#708);
#708 = AXIS2_PLACEMENT_3D('',#709,#710,#711);
#709 = CARTESIAN_POINT('',(18.69877119275,-110.8908330798,
    18.168635177921));
#710 = DIRECTION('',(-0.584310815098,0.,-0.811529957155));
#711 = DIRECTION('',(0.811529957155,0.,-0.584310815098));
#712 = ADVANCED_FACE('',(#713),#731,.F.);
#713 = FACE_BOUND('',#714,.F.);
#714 = EDGE_LOOP('',(#715,#723,#729,#730));
#715 = ORIENTED_EDGE('',*,*,#716,.T.);
#716 = EDGE_CURVE('',#280,#717,#719,.T.);
#717 = VERTEX_POINT('',#718);
#718 = CARTESIAN_POINT('',(18.09877119275,110.89083307981,
    17.894938278507));
#719 = LINE('',#720,#721);
#720 = CARTESIAN_POINT('',(18.09877119275,-110.8908330798,
    17.894938278507));
#721 = VECTOR('',#722,1.);
#722 = DIRECTION('',(0.,1.,0.));
#723 = ORIENTED_EDGE('',*,*,#724,.T.);
#724 = EDGE_CURVE('',#717,#693,#725,.T.);
#725 = LINE('',#726,#727);
#726 = CARTESIAN_POINT('',(18.09877119275,110.89083307981,
    17.894938278507));
#727 = VECTOR('',#728,1.);
#728 = DIRECTION('',(0.909811783207,0.,0.415021106857));
#729 = ORIENTED_EDGE('',*,*,#692,.F.);
#730 = ORIENTED_EDGE('',*,*,#287,.F.);
#731 = PLANE('',#732);
#732 = AXIS2_PLACEMENT_3D('',#733,#734,#735);
#733 = CARTESIAN_POINT('',(18.09877119275,-110.8908330798,
    17.894938278507));
#734 = DIRECTION('',(0.415021106857,0.,-0.909811783207));
#735 = DIRECTION('',(0.909811783207,0.,0.415021106857));
#736 = ADVANCED_FACE('',(#737),#755,.F.);
#737 = FACE_BOUND('',#738,.F.);
#738 = EDGE_LOOP('',(#739,#747,#753,#754));
#739 = ORIENTED_EDGE('',*,*,#740,.T.);
#740 = EDGE_CURVE('',#272,#741,#743,.T.);
#741 = VERTEX_POINT('',#742);
#742 = CARTESIAN_POINT('',(17.49877119275,110.89083307981,
    18.345621872257));
#743 = LINE('',#744,#745);
#744 = CARTESIAN_POINT('',(17.49877119275,-110.8908330798,
    18.345621872257));
#745 = VECTOR('',#746,1.);
#746 = DIRECTION('',(0.,1.,0.));
#747 = ORIENTED_EDGE('',*,*,#748,.T.);
#748 = EDGE_CURVE('',#741,#717,#749,.T.);
#749 = LINE('',#750,#751);
#750 = CARTESIAN_POINT('',(17.49877119275,110.89083307981,
    18.345621872257));
#751 = VECTOR('',#752,1.);
#752 = DIRECTION('',(0.799562526802,0.,-0.600582855012));
#753 = ORIENTED_EDGE('',*,*,#716,.F.);
#754 = ORIENTED_EDGE('',*,*,#279,.F.);
#755 = PLANE('',#756);
#756 = AXIS2_PLACEMENT_3D('',#757,#758,#759);
#757 = CARTESIAN_POINT('',(17.49877119275,-110.8908330798,
    18.345621872257));
#758 = DIRECTION('',(-0.600582855012,0.,-0.799562526802));
#759 = DIRECTION('',(0.799562526802,0.,-0.600582855012));
#760 = ADVANCED_FACE('',(#761),#779,.F.);
#761 = FACE_BOUND('',#762,.F.);
#762 = EDGE_LOOP('',(#763,#771,#777,#778));
#763 = ORIENTED_EDGE('',*,*,#764,.T.);
#764 = EDGE_CURVE('',#264,#765,#767,.T.);
#765 = VERTEX_POINT('',#766);
#766 = CARTESIAN_POINT('',(16.89877119275,110.89083307981,
    18.468363571476));
#767 = LINE('',#768,#769);
#768 = CARTESIAN_POINT('',(16.89877119275,-110.8908330798,
    18.468363571476));
#769 = VECTOR('',#770,1.);
#770 = DIRECTION('',(0.,1.,0.));
#771 = ORIENTED_EDGE('',*,*,#772,.T.);
#772 = EDGE_CURVE('',#765,#741,#773,.T.);
#773 = LINE('',#774,#775);
#774 = CARTESIAN_POINT('',(16.89877119275,110.89083307981,
    18.468363571476));
#775 = VECTOR('',#776,1.);
#776 = DIRECTION('',(0.979710307185,0.,-0.20041884641));
#777 = ORIENTED_EDGE('',*,*,#740,.F.);
#778 = ORIENTED_EDGE('',*,*,#271,.F.);
#779 = PLANE('',#780);
#780 = AXIS2_PLACEMENT_3D('',#781,#782,#783);
#781 = CARTESIAN_POINT('',(16.89877119275,-110.8908330798,
    18.468363571476));
#782 = DIRECTION('',(-0.20041884641,0.,-0.979710307185));
#783 = DIRECTION('',(0.979710307185,0.,-0.20041884641));
#784 = ADVANCED_FACE('',(#785),#803,.F.);
#785 = FACE_BOUND('',#786,.F.);
#786 = EDGE_LOOP('',(#787,#795,#801,#802));
#787 = ORIENTED_EDGE('',*,*,#788,.T.);
#788 = EDGE_CURVE('',#256,#789,#791,.T.);
#789 = VERTEX_POINT('',#790);
#790 = CARTESIAN_POINT('',(16.29877119275,110.89083307981,
    18.394556808781));
#791 = LINE('',#792,#793);
#792 = CARTESIAN_POINT('',(16.29877119275,-110.8908330798,
    18.394556808781));
#793 = VECTOR('',#794,1.);
#794 = DIRECTION('',(0.,1.,0.));
#795 = ORIENTED_EDGE('',*,*,#796,.T.);
#796 = EDGE_CURVE('',#789,#765,#797,.T.);
#797 = LINE('',#798,#799);
#798 = CARTESIAN_POINT('',(16.29877119275,110.89083307981,
    18.394556808781));
#799 = VECTOR('',#800,1.);
#800 = DIRECTION('',(0.992518908955,0.,0.12209101264));
#801 = ORIENTED_EDGE('',*,*,#764,.F.);
#802 = ORIENTED_EDGE('',*,*,#263,.F.);
#803 = PLANE('',#804);
#804 = AXIS2_PLACEMENT_3D('',#805,#806,#807);
#805 = CARTESIAN_POINT('',(16.29877119275,-110.8908330798,
    18.394556808781));
#806 = DIRECTION('',(0.12209101264,0.,-0.992518908955));
#807 = DIRECTION('',(0.992518908955,0.,0.12209101264));
#808 = ADVANCED_FACE('',(#809),#827,.F.);
#809 = FACE_BOUND('',#810,.F.);
#810 = EDGE_LOOP('',(#811,#819,#825,#826));
#811 = ORIENTED_EDGE('',*,*,#812,.T.);
#812 = EDGE_CURVE('',#248,#813,#815,.T.);
#813 = VERTEX_POINT('',#814);
#814 = CARTESIAN_POINT('',(15.69877119275,110.89083307981,
    18.528864670109));
#815 = LINE('',#816,#817);
#816 = CARTESIAN_POINT('',(15.69877119275,-110.8908330798,
    18.528864670109));
#817 = VECTOR('',#818,1.);
#818 = DIRECTION('',(0.,1.,0.));
#819 = ORIENTED_EDGE('',*,*,#820,.T.);
#820 = EDGE_CURVE('',#813,#789,#821,.T.);
#821 = LINE('',#822,#823);
#822 = CARTESIAN_POINT('',(15.69877119275,110.89083307981,
    18.528864670109));
#823 = VECTOR('',#824,1.);
#824 = DIRECTION('',(0.975850246978,0.,-0.218440599414));
#825 = ORIENTED_EDGE('',*,*,#788,.F.);
#826 = ORIENTED_EDGE('',*,*,#255,.F.);
#827 = PLANE('',#828);
#828 = AXIS2_PLACEMENT_3D('',#829,#830,#831);
#829 = CARTESIAN_POINT('',(15.69877119275,-110.8908330798,
    18.528864670109));
#830 = DIRECTION('',(-0.218440599414,0.,-0.975850246978));
#831 = DIRECTION('',(0.975850246978,0.,-0.218440599414));
#832 = ADVANCED_FACE('',(#833),#851,.F.);
#833 = FACE_BOUND('',#834,.F.);
#834 = EDGE_LOOP('',(#835,#843,#849,#850));
#835 = ORIENTED_EDGE('',*,*,#836,.T.);
#836 = EDGE_CURVE('',#240,#837,#839,.T.);
#837 = VERTEX_POINT('',#838);
#838 = CARTESIAN_POINT('',(15.09877119275,110.89083307981,
    18.366144943546));
#839 = LINE('',#840,#841);
#840 = CARTESIAN_POINT('',(15.09877119275,-110.8908330798,
    18.366144943546));
#841 = VECTOR('',#842,1.);
#842 = DIRECTION('',(0.,1.,0.));
#843 = ORIENTED_EDGE('',*,*,#844,.T.);
#844 = EDGE_CURVE('',#837,#813,#845,.T.);
#845 = LINE('',#846,#847);
#846 = CARTESIAN_POINT('',(15.09877119275,110.89083307981,
    18.366144943546));
#847 = VECTOR('',#848,1.);
#848 = DIRECTION('',(0.965137133011,0.,0.261744750631));
#849 = ORIENTED_EDGE('',*,*,#812,.F.);
#850 = ORIENTED_EDGE('',*,*,#247,.F.);
#851 = PLANE('',#852);
#852 = AXIS2_PLACEMENT_3D('',#853,#854,#855);
#853 = CARTESIAN_POINT('',(15.09877119275,-110.8908330798,
    18.366144943546));
#854 = DIRECTION('',(0.261744750631,0.,-0.965137133011));
#855 = DIRECTION('',(0.965137133011,0.,0.261744750631));
#856 = ADVANCED_FACE('',(#857),#875,.F.);
#857 = FACE_BOUND('',#858,.F.);
#858 = EDGE_LOOP('',(#859,#867,#873,#874));
#859 = ORIENTED_EDGE('',*,*,#860,.T.);
#860 = EDGE_CURVE('',#232,#861,#863,.T.);
#861 = VERTEX_POINT('',#862);
#862 = CARTESIAN_POINT('',(14.49877119275,110.89083307981,18.57441215546
    ));
#863 = LINE('',#864,#865);
#864 = CARTESIAN_POINT('',(14.49877119275,-110.8908330798,18.57441215546
    ));
#865 = VECTOR('',#866,1.);
#866 = DIRECTION('',(0.,1.,0.));
#867 = ORIENTED_EDGE('',*,*,#868,.T.);
#868 = EDGE_CURVE('',#861,#837,#869,.T.);
#869 = LINE('',#870,#871);
#870 = CARTESIAN_POINT('',(14.49877119275,110.89083307981,18.57441215546
    ));
#871 = VECTOR('',#872,1.);
#872 = DIRECTION('',(0.944705919244,0.,-0.327918779799));
#873 = ORIENTED_EDGE('',*,*,#836,.F.);
#874 = ORIENTED_EDGE('',*,*,#239,.F.);
#875 = PLANE('',#876);
#876 = AXIS2_PLACEMENT_3D('',#877,#878,#879);
#877 = CARTESIAN_POINT('',(14.49877119275,-110.8908330798,18.57441215546
    ));
#878 = DIRECTION('',(-0.327918779799,0.,-0.944705919244));
#879 = DIRECTION('',(0.944705919244,0.,-0.327918779799));
#880 = ADVANCED_FACE('',(#881),#899,.F.);
#881 = FACE_BOUND('',#882,.F.);
#882 = EDGE_LOOP('',(#883,#891,#897,#898));
#883 = ORIENTED_EDGE('',*,*,#884,.T.);
#884 = EDGE_CURVE('',#224,#885,#887,.T.);
#885 = VERTEX_POINT('',#886);
#886 = CARTESIAN_POINT('',(13.89877119275,110.89083307981,
    18.649866867374));
#887 = LINE('',#888,#889);
#888 = CARTESIAN_POINT('',(13.89877119275,-110.8908330798,
    18.649866867374));
#889 = VECTOR('',#890,1.);
#890 = DIRECTION('',(0.,1.,0.));
#891 = ORIENTED_EDGE('',*,*,#892,.T.);
#892 = EDGE_CURVE('',#885,#861,#893,.T.);
#893 = LINE('',#894,#895);
#894 = CARTESIAN_POINT('',(13.89877119275,110.89083307981,
    18.649866867374));
#895 = VECTOR('',#896,1.);
#896 = DIRECTION('',(0.992185055207,0.,-0.12477506251));
#897 = ORIENTED_EDGE('',*,*,#860,.F.);
#898 = ORIENTED_EDGE('',*,*,#231,.F.);
#899 = PLANE('',#900);
#900 = AXIS2_PLACEMENT_3D('',#901,#902,#903);
#901 = CARTESIAN_POINT('',(13.89877119275,-110.8908330798,
    18.649866867374));
#902 = DIRECTION('',(-0.12477506251,0.,-0.992185055207));
#903 = DIRECTION('',(0.992185055207,0.,-0.12477506251));
#904 = ADVANCED_FACE('',(#905),#923,.F.);
#905 = FACE_BOUND('',#906,.F.);
#906 = EDGE_LOOP('',(#907,#915,#921,#922));
#907 = ORIENTED_EDGE('',*,*,#908,.T.);
#908 = EDGE_CURVE('',#216,#909,#911,.T.);
#909 = VERTEX_POINT('',#910);
#910 = CARTESIAN_POINT('',(13.29877119275,110.89083307981,
    20.925715256046));
#911 = LINE('',#912,#913);
#912 = CARTESIAN_POINT('',(13.29877119275,-110.8908330798,
    20.925715256046));
#913 = VECTOR('',#914,1.);
#914 = DIRECTION('',(0.,1.,0.));
#915 = ORIENTED_EDGE('',*,*,#916,.T.);
#916 = EDGE_CURVE('',#909,#885,#917,.T.);
#917 = LINE('',#918,#919);
#918 = CARTESIAN_POINT('',(13.29877119275,110.89083307981,
    20.925715256046));
#919 = VECTOR('',#920,1.);
#920 = DIRECTION('',(0.254927402098,0.,-0.966960195489));
#921 = ORIENTED_EDGE('',*,*,#884,.F.);
#922 = ORIENTED_EDGE('',*,*,#223,.F.);
#923 = PLANE('',#924);
#924 = AXIS2_PLACEMENT_3D('',#925,#926,#927);
#925 = CARTESIAN_POINT('',(13.29877119275,-110.8908330798,
    20.925715256046));
#926 = DIRECTION('',(-0.966960195489,0.,-0.254927402098));
#927 = DIRECTION('',(0.254927402098,0.,-0.966960195489));
#928 = ADVANCED_FACE('',(#929),#947,.F.);
#929 = FACE_BOUND('',#930,.F.);
#930 = EDGE_LOOP('',(#931,#939,#945,#946));
#931 = ORIENTED_EDGE('',*,*,#932,.T.);
#932 = EDGE_CURVE('',#208,#933,#935,.T.);
#933 = VERTEX_POINT('',#934);
#934 = CARTESIAN_POINT('',(12.69877119275,110.89083307981,
    23.841547775577));
#935 = LINE('',#936,#937);
#936 = CARTESIAN_POINT('',(12.69877119275,-110.8908330798,
    23.841547775577));
#937 = VECTOR('',#938,1.);
#938 = DIRECTION('',(0.,1.,0.));
#939 = ORIENTED_EDGE('',*,*,#940,.T.);
#940 = EDGE_CURVE('',#933,#909,#941,.T.);
#941 = LINE('',#942,#943);
#942 = CARTESIAN_POINT('',(12.69877119275,110.89083307981,
    23.841547775577));
#943 = VECTOR('',#944,1.);
#944 = DIRECTION('',(0.201550293486,0.,-0.979478166778));
#945 = ORIENTED_EDGE('',*,*,#908,.F.);
#946 = ORIENTED_EDGE('',*,*,#215,.F.);
#947 = PLANE('',#948);
#948 = AXIS2_PLACEMENT_3D('',#949,#950,#951);
#949 = CARTESIAN_POINT('',(12.69877119275,-110.8908330798,
    23.841547775577));
#950 = DIRECTION('',(-0.979478166778,0.,-0.201550293486));
#951 = DIRECTION('',(0.201550293486,0.,-0.979478166778));
#952 = ADVANCED_FACE('',(#953),#971,.F.);
#953 = FACE_BOUND('',#954,.F.);
#954 = EDGE_LOOP('',(#955,#963,#969,#970));
#955 = ORIENTED_EDGE('',*,*,#956,.T.);
#956 = EDGE_CURVE('',#200,#957,#959,.T.);
#957 = VERTEX_POINT('',#958);
#958 = CARTESIAN_POINT('',(12.09877119275,110.89083307981,
    27.121577072452));
#959 = LINE('',#960,#961);
#960 = CARTESIAN_POINT('',(12.09877119275,-110.8908330798,
    27.121577072452));
#961 = VECTOR('',#962,1.);
#962 = DIRECTION('',(0.,1.,0.));
#963 = ORIENTED_EDGE('',*,*,#964,.T.);
#964 = EDGE_CURVE('',#957,#933,#965,.T.);
#965 = LINE('',#966,#967);
#966 = CARTESIAN_POINT('',(12.09877119275,110.89083307981,
    27.121577072452));
#967 = VECTOR('',#968,1.);
#968 = DIRECTION('',(0.179939433857,0.,-0.983677691189));
#969 = ORIENTED_EDGE('',*,*,#932,.F.);
#970 = ORIENTED_EDGE('',*,*,#207,.F.);
#971 = PLANE('',#972);
#972 = AXIS2_PLACEMENT_3D('',#973,#974,#975);
#973 = CARTESIAN_POINT('',(12.09877119275,-110.8908330798,
    27.121577072452));
#974 = DIRECTION('',(-0.983677691189,0.,-0.179939433857));
#975 = DIRECTION('',(0.179939433857,0.,-0.983677691189));
#976 = ADVANCED_FACE('',(#977),#995,.F.);
#977 = FACE_BOUND('',#978,.F.);
#978 = EDGE_LOOP('',(#979,#987,#993,#994));
#979 = ORIENTED_EDGE('',*,*,#980,.T.);
#980 = EDGE_CURVE('',#192,#981,#983,.T.);
#981 = VERTEX_POINT('',#982);
#982 = CARTESIAN_POINT('',(11.49877119275,110.89083307981,
    30.519968796085));
#983 = LINE('',#984,#985);
#984 = CARTESIAN_POINT('',(11.49877119275,-110.8908330798,
    30.519968796085));
#985 = VECTOR('',#986,1.);
#986 = DIRECTION('',(0.,1.,0.));
#987 = ORIENTED_EDGE('',*,*,#988,.T.);
#988 = EDGE_CURVE('',#981,#957,#989,.T.);
#989 = LINE('',#990,#991);
#990 = CARTESIAN_POINT('',(11.49877119275,110.89083307981,
    30.519968796085));
#991 = VECTOR('',#992,1.);
#992 = DIRECTION('',(0.173865091611,0.,-0.984769480599));
#993 = ORIENTED_EDGE('',*,*,#956,.F.);
#994 = ORIENTED_EDGE('',*,*,#199,.F.);
#995 = PLANE('',#996);
#996 = AXIS2_PLACEMENT_3D('',#997,#998,#999);
#997 = CARTESIAN_POINT('',(11.49877119275,-110.8908330798,
    30.519968796085));
#998 = DIRECTION('',(-0.984769480599,0.,-0.173865091611));
#999 = DIRECTION('',(0.173865091611,0.,-0.984769480599));
#1000 = ADVANCED_FACE('',(#1001),#1019,.F.);
#1001 = FACE_BOUND('',#1002,.F.);
#1002 = EDGE_LOOP('',(#1003,#1011,#1017,#1018));
#1003 = ORIENTED_EDGE('',*,*,#1004,.T.);
#1004 = EDGE_CURVE('',#184,#1005,#1007,.T.);
#1005 = VERTEX_POINT('',#1006);
#1006 = CARTESIAN_POINT('',(10.89877119275,110.89083307981,
    33.490382004093));
#1007 = LINE('',#1008,#1009);
#1008 = CARTESIAN_POINT('',(10.89877119275,-110.8908330798,
    33.490382004093));
#1009 = VECTOR('',#1010,1.);
#1010 = DIRECTION('',(0.,1.,0.));
#1011 = ORIENTED_EDGE('',*,*,#1012,.T.);
#1012 = EDGE_CURVE('',#1005,#981,#1013,.T.);
#1013 = LINE('',#1014,#1015);
#1014 = CARTESIAN_POINT('',(10.89877119275,110.89083307981,
    33.490382004093));
#1015 = VECTOR('',#1016,1.);
#1016 = DIRECTION('',(0.197993335775,0.,-0.980203366138));
#1017 = ORIENTED_EDGE('',*,*,#980,.F.);
#1018 = ORIENTED_EDGE('',*,*,#191,.F.);
#1019 = PLANE('',#1020);
#1020 = AXIS2_PLACEMENT_3D('',#1021,#1022,#1023);
#1021 = CARTESIAN_POINT('',(10.89877119275,-110.8908330798,
    33.490382004093));
#1022 = DIRECTION('',(-0.980203366138,0.,-0.197993335775));
#1023 = DIRECTION('',(0.197993335775,0.,-0.980203366138));
#1024 = ADVANCED_FACE('',(#1025),#1043,.F.);
#1025 = FACE_BOUND('',#1026,.F.);
#1026 = EDGE_LOOP('',(#1027,#1035,#1041,#1042));
#1027 = ORIENTED_EDGE('',*,*,#1028,.T.);
#1028 = EDGE_CURVE('',#176,#1029,#1031,.T.);
#1029 = VERTEX_POINT('',#1030);
#1030 = CARTESIAN_POINT('',(10.29877119275,110.89083307981,
    34.485453415226));
#1031 = LINE('',#1032,#1033);
#1032 = CARTESIAN_POINT('',(10.29877119275,-110.8908330798,
    34.485453415226));
#1033 = VECTOR('',#1034,1.);
#1034 = DIRECTION('',(0.,1.,0.));
#1035 = ORIENTED_EDGE('',*,*,#1036,.T.);
#1036 = EDGE_CURVE('',#1029,#1005,#1037,.T.);
#1037 = LINE('',#1038,#1039);
#1038 = CARTESIAN_POINT('',(10.29877119275,110.89083307981,
    34.485453415226));
#1039 = VECTOR('',#1040,1.);
#1040 = DIRECTION('',(0.516365820642,0.,-0.856368109678));
#1041 = ORIENTED_EDGE('',*,*,#1004,.F.);
#1042 = ORIENTED_EDGE('',*,*,#183,.F.);
#1043 = PLANE('',#1044);
#1044 = AXIS2_PLACEMENT_3D('',#1045,#1046,#1047);
#1045 = CARTESIAN_POINT('',(10.29877119275,-110.8908330798,
    34.485453415226));
#1046 = DIRECTION('',(-0.856368109678,0.,-0.516365820642));
#1047 = DIRECTION('',(0.516365820642,0.,-0.856368109678));
#1048 = ADVANCED_FACE('',(#1049),#1067,.F.);
#1049 = FACE_BOUND('',#1050,.F.);
#1050 = EDGE_LOOP('',(#1051,#1059,#1065,#1066));
#1051 = ORIENTED_EDGE('',*,*,#1052,.T.);
#1052 = EDGE_CURVE('',#168,#1053,#1055,.T.);
#1053 = VERTEX_POINT('',#1054);
#1054 = CARTESIAN_POINT('',(9.69877119275,110.89083307981,
    35.297617721867));
#1055 = LINE('',#1056,#1057);
#1056 = CARTESIAN_POINT('',(9.69877119275,-110.8908330798,
    35.297617721867));
#1057 = VECTOR('',#1058,1.);
#1058 = DIRECTION('',(0.,1.,0.));
#1059 = ORIENTED_EDGE('',*,*,#1060,.T.);
#1060 = EDGE_CURVE('',#1053,#1029,#1061,.T.);
#1061 = LINE('',#1062,#1063);
#1062 = CARTESIAN_POINT('',(9.69877119275,110.89083307981,
    35.297617721867));
#1063 = VECTOR('',#1064,1.);
#1064 = DIRECTION('',(0.594201883235,0.,-0.80431593417));
#1065 = ORIENTED_EDGE('',*,*,#1028,.F.);
#1066 = ORIENTED_EDGE('',*,*,#175,.F.);
#1067 = PLANE('',#1068);
#1068 = AXIS2_PLACEMENT_3D('',#1069,#1070,#1071);
#1069 = CARTESIAN_POINT('',(9.69877119275,-110.8908330798,
    35.297617721867));
#1070 = DIRECTION('',(-0.80431593417,0.,-0.594201883235));
#1071 = DIRECTION('',(0.594201883235,0.,-0.80431593417));
#1072 = ADVANCED_FACE('',(#1073),#1091,.F.);
#1073 = FACE_BOUND('',#1074,.F.);
#1074 = EDGE_LOOP('',(#1075,#1083,#1089,#1090));
#1075 = ORIENTED_EDGE('',*,*,#1076,.T.);
#1076 = EDGE_CURVE('',#160,#1077,#1079,.T.);
#1077 = VERTEX_POINT('',#1078);
#1078 = CARTESIAN_POINT('',(9.09877119275,110.89083307981,
    36.155863571476));
#1079 = LINE('',#1080,#1081);
#1080 = CARTESIAN_POINT('',(9.09877119275,-110.8908330798,
    36.155863571476));
#1081 = VECTOR('',#1082,1.);
#1082 = DIRECTION('',(0.,1.,0.));
#1083 = ORIENTED_EDGE('',*,*,#1084,.T.);
#1084 = EDGE_CURVE('',#1077,#1053,#1085,.T.);
#1085 = LINE('',#1086,#1087);
#1086 = CARTESIAN_POINT('',(9.09877119275,110.89083307981,
    36.155863571476));
#1087 = VECTOR('',#1088,1.);
#1088 = DIRECTION('',(0.57296740182,0.,-0.819578157622));
#1089 = ORIENTED_EDGE('',*,*,#1052,.F.);
#1090 = ORIENTED_EDGE('',*,*,#167,.F.);
#1091 = PLANE('',#1092);
#1092 = AXIS2_PLACEMENT_3D('',#1093,#1094,#1095);
#1093 = CARTESIAN_POINT('',(9.09877119275,-110.8908330798,
    36.155863571476));
#1094 = DIRECTION('',(-0.819578157622,0.,-0.57296740182));
#1095 = DIRECTION('',(0.57296740182,0.,-0.819578157622));
#1096 = ADVANCED_FACE('',(#1097),#1115,.F.);
#1097 = FACE_BOUND('',#1098,.F.);
#1098 = EDGE_LOOP('',(#1099,#1107,#1113,#1114));
#1099 = ORIENTED_EDGE('',*,*,#1100,.T.);
#1100 = EDGE_CURVE('',#152,#1101,#1103,.T.);
#1101 = VERTEX_POINT('',#1102);
#1102 = CARTESIAN_POINT('',(8.49877119275,110.89083307981,
    37.093958664249));
#1103 = LINE('',#1104,#1105);
#1104 = CARTESIAN_POINT('',(8.49877119275,-110.8908330798,
    37.093958664249));
#1105 = VECTOR('',#1106,1.);
#1106 = DIRECTION('',(0.,1.,0.));
#1107 = ORIENTED_EDGE('',*,*,#1108,.T.);
#1108 = EDGE_CURVE('',#1101,#1077,#1109,.T.);
#1109 = LINE('',#1110,#1111);
#1110 = CARTESIAN_POINT('',(8.49877119275,110.89083307981,
    37.093958664249));
#1111 = VECTOR('',#1112,1.);
#1112 = DIRECTION('',(0.538811038752,0.,-0.842426652308));
#1113 = ORIENTED_EDGE('',*,*,#1076,.F.);
#1114 = ORIENTED_EDGE('',*,*,#159,.F.);
#1115 = PLANE('',#1116);
#1116 = AXIS2_PLACEMENT_3D('',#1117,#1118,#1119);
#1117 = CARTESIAN_POINT('',(8.49877119275,-110.8908330798,
    37.093958664249));
#1118 = DIRECTION('',(-0.842426652308,0.,-0.538811038752));
#1119 = DIRECTION('',(0.538811038752,0.,-0.842426652308));
#1120 = ADVANCED_FACE('',(#1121),#1139,.F.);
#1121 = FACE_BOUND('',#1122,.F.);
#1122 = EDGE_LOOP('',(#1123,#1131,#1137,#1138));
#1123 = ORIENTED_EDGE('',*,*,#1124,.T.);
#1124 = EDGE_CURVE('',#144,#1125,#1127,.T.);
#1125 = VERTEX_POINT('',#1126);
#1126 = CARTESIAN_POINT('',(7.89877119275,110.89083307981,
    38.166514206242));
#1127 = LINE('',#1128,#1129);
#1128 = CARTESIAN_POINT('',(7.89877119275,-110.8908330798,
    38.166514206242));
#1129 = VECTOR('',#1130,1.);
#1130 = DIRECTION('',(0.,1.,0.));
#1131 = ORIENTED_EDGE('',*,*,#1132,.T.);
#1132 = EDGE_CURVE('',#1125,#1101,#1133,.T.);
#1133 = LINE('',#1134,#1135);
#1134 = CARTESIAN_POINT('',(7.89877119275,110.89083307981,
    38.166514206242));
#1135 = VECTOR('',#1136,1.);
#1136 = DIRECTION('',(0.48821239348,0.,-0.872724847161));
#1137 = ORIENTED_EDGE('',*,*,#1100,.F.);
#1138 = ORIENTED_EDGE('',*,*,#151,.F.);
#1139 = PLANE('',#1140);
#1140 = AXIS2_PLACEMENT_3D('',#1141,#1142,#1143);
#1141 = CARTESIAN_POINT('',(7.89877119275,-110.8908330798,
    38.166514206242));
#1142 = DIRECTION('',(-0.872724847161,0.,-0.48821239348));
#1143 = DIRECTION('',(0.48821239348,0.,-0.872724847161));
#1144 = ADVANCED_FACE('',(#1145),#1163,.F.);
#1145 = FACE_BOUND('',#1146,.F.);
#1146 = EDGE_LOOP('',(#1147,#1155,#1161,#1162));
#1147 = ORIENTED_EDGE('',*,*,#1148,.T.);
#1148 = EDGE_CURVE('',#136,#1149,#1151,.T.);
#1149 = VERTEX_POINT('',#1150);
#1150 = CARTESIAN_POINT('',(7.29877119275,110.89083307981,40.09899406464
    ));
#1151 = LINE('',#1152,#1153);
#1152 = CARTESIAN_POINT('',(7.29877119275,-110.8908330798,40.09899406464
    ));
#1153 = VECTOR('',#1154,1.);
#1154 = DIRECTION('',(0.,1.,0.));
#1155 = ORIENTED_EDGE('',*,*,#1156,.T.);
#1156 = EDGE_CURVE('',#1149,#1125,#1157,.T.);
#1157 = LINE('',#1158,#1159);
#1158 = CARTESIAN_POINT('',(7.29877119275,110.89083307981,40.09899406464
    ));
#1159 = VECTOR('',#1160,1.);
#1160 = DIRECTION('',(0.296518611659,0.,-0.955027074454));
#1161 = ORIENTED_EDGE('',*,*,#1124,.F.);
#1162 = ORIENTED_EDGE('',*,*,#143,.F.);
#1163 = PLANE('',#1164);
#1164 = AXIS2_PLACEMENT_3D('',#1165,#1166,#1167);
#1165 = CARTESIAN_POINT('',(7.29877119275,-110.8908330798,40.09899406464
    ));
#1166 = DIRECTION('',(-0.955027074454,0.,-0.296518611659));
#1167 = DIRECTION('',(0.296518611659,0.,-0.955027074454));
#1168 = ADVANCED_FACE('',(#1169),#1187,.F.);
#1169 = FACE_BOUND('',#1170,.F.);
#1170 = EDGE_LOOP('',(#1171,#1179,#1185,#1186));
#1171 = ORIENTED_EDGE('',*,*,#1172,.T.);
#1172 = EDGE_CURVE('',#128,#1173,#1175,.T.);
#1173 = VERTEX_POINT('',#1174);
#1174 = CARTESIAN_POINT('',(6.69877119275,110.89083307981,
    41.393839645695));
#1175 = LINE('',#1176,#1177);
#1176 = CARTESIAN_POINT('',(6.69877119275,-110.8908330798,
    41.393839645695));
#1177 = VECTOR('',#1178,1.);
#1178 = DIRECTION('',(0.,1.,0.));
#1179 = ORIENTED_EDGE('',*,*,#1180,.T.);
#1180 = EDGE_CURVE('',#1173,#1149,#1181,.T.);
#1181 = LINE('',#1182,#1183);
#1182 = CARTESIAN_POINT('',(6.69877119275,110.89083307981,
    41.393839645695));
#1183 = VECTOR('',#1184,1.);
#1184 = DIRECTION('',(0.420431944825,0.,-0.907324076486));
#1185 = ORIENTED_EDGE('',*,*,#1148,.F.);
#1186 = ORIENTED_EDGE('',*,*,#135,.F.);
#1187 = PLANE('',#1188);
#1188 = AXIS2_PLACEMENT_3D('',#1189,#1190,#1191);
#1189 = CARTESIAN_POINT('',(6.69877119275,-110.8908330798,
    41.393839645695));
#1190 = DIRECTION('',(-0.907324076486,0.,-0.420431944825));
#1191 = DIRECTION('',(0.420431944825,0.,-0.907324076486));
#1192 = ADVANCED_FACE('',(#1193),#1211,.F.);
#1193 = FACE_BOUND('',#1194,.F.);
#1194 = EDGE_LOOP('',(#1195,#1203,#1209,#1210));
#1195 = ORIENTED_EDGE('',*,*,#1196,.T.);
#1196 = EDGE_CURVE('',#120,#1197,#1199,.T.);
#1197 = VERTEX_POINT('',#1198);
#1198 = CARTESIAN_POINT('',(6.09877119275,110.89083307981,
    42.991663742374));
#1199 = LINE('',#1200,#1201);
#1200 = CARTESIAN_POINT('',(6.09877119275,-110.8908330798,
    42.991663742374));
#1201 = VECTOR('',#1202,1.);
#1202 = DIRECTION('',(0.,1.,0.));
#1203 = ORIENTED_EDGE('',*,*,#1204,.T.);
#1204 = EDGE_CURVE('',#1197,#1173,#1205,.T.);
#1205 = LINE('',#1206,#1207);
#1206 = CARTESIAN_POINT('',(6.09877119275,110.89083307981,
    42.991663742374));
#1207 = VECTOR('',#1208,1.);
#1208 = DIRECTION('',(0.351542542072,0.,-0.936171907885));
#1209 = ORIENTED_EDGE('',*,*,#1172,.F.);
#1210 = ORIENTED_EDGE('',*,*,#127,.F.);
#1211 = PLANE('',#1212);
#1212 = AXIS2_PLACEMENT_3D('',#1213,#1214,#1215);
#1213 = CARTESIAN_POINT('',(6.09877119275,-110.8908330798,
    42.991663742374));
#1214 = DIRECTION('',(-0.936171907885,0.,-0.351542542072));
#1215 = DIRECTION('',(0.351542542072,0.,-0.936171907885));
#1216 = ADVANCED_FACE('',(#1217),#1235,.F.);
#1217 = FACE_BOUND('',#1218,.F.);
#1218 = EDGE_LOOP('',(#1219,#1227,#1233,#1234));
#1219 = ORIENTED_EDGE('',*,*,#1220,.T.);
#1220 = EDGE_CURVE('',#112,#1221,#1223,.T.);
#1221 = VERTEX_POINT('',#1222);
#1222 = CARTESIAN_POINT('',(5.49877119275,110.89083307981,44.07148246796
    ));
#1223 = LINE('',#1224,#1225);
#1224 = CARTESIAN_POINT('',(5.49877119275,-110.8908330798,44.07148246796
    ));
#1225 = VECTOR('',#1226,1.);
#1226 = DIRECTION('',(0.,1.,0.));
#1227 = ORIENTED_EDGE('',*,*,#1228,.T.);
#1228 = EDGE_CURVE('',#1221,#1197,#1229,.T.);
#1229 = LINE('',#1230,#1231);
#1230 = CARTESIAN_POINT('',(5.49877119275,110.89083307981,44.07148246796
    ));
#1231 = VECTOR('',#1232,1.);
#1232 = DIRECTION('',(0.485705226594,0.,-0.874122664652));
#1233 = ORIENTED_EDGE('',*,*,#1196,.F.);
#1234 = ORIENTED_EDGE('',*,*,#119,.F.);
#1235 = PLANE('',#1236);
#1236 = AXIS2_PLACEMENT_3D('',#1237,#1238,#1239);
#1237 = CARTESIAN_POINT('',(5.49877119275,-110.8908330798,44.07148246796
    ));
#1238 = DIRECTION('',(-0.874122664652,0.,-0.485705226594));
#1239 = DIRECTION('',(0.485705226594,0.,-0.874122664652));
#1240 = ADVANCED_FACE('',(#1241),#1259,.F.);
#1241 = FACE_BOUND('',#1242,.F.);
#1242 = EDGE_LOOP('',(#1243,#1251,#1257,#1258));
#1243 = ORIENTED_EDGE('',*,*,#1244,.T.);
#1244 = EDGE_CURVE('',#104,#1245,#1247,.T.);
#1245 = VERTEX_POINT('',#1246);
#1246 = CARTESIAN_POINT('',(4.89877119275,110.89083307981,
    44.315272140812));
#1247 = LINE('',#1248,#1249);
#1248 = CARTESIAN_POINT('',(4.89877119275,-110.8908330798,
    44.315272140812));
#1249 = VECTOR('',#1250,1.);
#1250 = DIRECTION('',(0.,1.,0.));
#1251 = ORIENTED_EDGE('',*,*,#1252,.T.);
#1252 = EDGE_CURVE('',#1245,#1221,#1253,.T.);
#1253 = LINE('',#1254,#1255);
#1254 = CARTESIAN_POINT('',(4.89877119275,110.89083307981,
    44.315272140812));
#1255 = VECTOR('',#1256,1.);
#1256 = DIRECTION('',(0.926445214964,0.,-0.376429626452));
#1257 = ORIENTED_EDGE('',*,*,#1220,.F.);
#1258 = ORIENTED_EDGE('',*,*,#111,.F.);
#1259 = PLANE('',#1260);
#1260 = AXIS2_PLACEMENT_3D('',#1261,#1262,#1263);
#1261 = CARTESIAN_POINT('',(4.89877119275,-110.8908330798,
    44.315272140812));
#1262 = DIRECTION('',(-0.376429626452,0.,-0.926445214964));
#1263 = DIRECTION('',(0.926445214964,0.,-0.376429626452));
#1264 = ADVANCED_FACE('',(#1265),#1283,.F.);
#1265 = FACE_BOUND('',#1266,.F.);
#1266 = EDGE_LOOP('',(#1267,#1275,#1281,#1282));
#1267 = ORIENTED_EDGE('',*,*,#1268,.T.);
#1268 = EDGE_CURVE('',#96,#1269,#1271,.T.);
#1269 = VERTEX_POINT('',#1270);
#1270 = CARTESIAN_POINT('',(4.29877119275,110.89083307981,
    44.233073044132));
#1271 = LINE('',#1272,#1273);
#1272 = CARTESIAN_POINT('',(4.29877119275,-110.8908330798,
    44.233073044132));
#1273 = VECTOR('',#1274,1.);
#1274 = DIRECTION('',(0.,1.,0.));
#1275 = ORIENTED_EDGE('',*,*,#1276,.T.);
#1276 = EDGE_CURVE('',#1269,#1245,#1277,.T.);
#1277 = LINE('',#1278,#1279);
#1278 = CARTESIAN_POINT('',(4.29877119275,110.89083307981,
    44.233073044132));
#1279 = VECTOR('',#1280,1.);
#1280 = DIRECTION('',(0.990745771008,0.,0.135730679027));
#1281 = ORIENTED_EDGE('',*,*,#1244,.F.);
#1282 = ORIENTED_EDGE('',*,*,#103,.F.);
#1283 = PLANE('',#1284);
#1284 = AXIS2_PLACEMENT_3D('',#1285,#1286,#1287);
#1285 = CARTESIAN_POINT('',(4.29877119275,-110.8908330798,
    44.233073044132));
#1286 = DIRECTION('',(0.135730679027,0.,-0.990745771008));
#1287 = DIRECTION('',(0.990745771008,0.,0.135730679027));
#1288 = ADVANCED_FACE('',(#1289),#1307,.F.);
#1289 = FACE_BOUND('',#1290,.F.);
#1290 = EDGE_LOOP('',(#1291,#1299,#1305,#1306));
#1291 = ORIENTED_EDGE('',*,*,#1292,.T.);
#1292 = EDGE_CURVE('',#88,#1293,#1295,.T.);
#1293 = VERTEX_POINT('',#1294);
#1294 = CARTESIAN_POINT('',(3.69877119275,110.89083307981,
    44.303767013859));
#1295 = LINE('',#1296,#1297);
#1296 = CARTESIAN_POINT('',(3.69877119275,-110.8908330798,
    44.303767013859));
#1297 = VECTOR('',#1298,1.);
#1298 = DIRECTION('',(0.,1.,0.));
#1299 = ORIENTED_EDGE('',*,*,#1300,.T.);
#1300 = EDGE_CURVE('',#1293,#1269,#1301,.T.);
#1301 = LINE('',#1302,#1303);
#1302 = CARTESIAN_POINT('',(3.69877119275,110.89083307981,
    44.303767013859));
#1303 = VECTOR('',#1304,1.);
#1304 = DIRECTION('',(0.993130280593,0.,-0.117013869985));
#1305 = ORIENTED_EDGE('',*,*,#1268,.F.);
#1306 = ORIENTED_EDGE('',*,*,#95,.F.);
#1307 = PLANE('',#1308);
#1308 = AXIS2_PLACEMENT_3D('',#1309,#1310,#1311);
#1309 = CARTESIAN_POINT('',(3.69877119275,-110.8908330798,
    44.303767013859));
#1310 = DIRECTION('',(-0.117013869985,0.,-0.993130280593));
#1311 = DIRECTION('',(0.993130280593,0.,-0.117013869985));
#1312 = ADVANCED_FACE('',(#1313),#1331,.F.);
#1313 = FACE_BOUND('',#1314,.F.);
#1314 = EDGE_LOOP('',(#1315,#1323,#1329,#1330));
#1315 = ORIENTED_EDGE('',*,*,#1316,.T.);
#1316 = EDGE_CURVE('',#80,#1317,#1319,.T.);
#1317 = VERTEX_POINT('',#1318);
#1318 = CARTESIAN_POINT('',(3.09877119275,110.89083307981,44.27216606171
    ));
#1319 = LINE('',#1320,#1321);
#1320 = CARTESIAN_POINT('',(3.09877119275,-110.8908330798,44.27216606171
    ));
#1321 = VECTOR('',#1322,1.);
#1322 = DIRECTION('',(0.,1.,0.));
#1323 = ORIENTED_EDGE('',*,*,#1324,.T.);
#1324 = EDGE_CURVE('',#1317,#1293,#1325,.T.);
#1325 = LINE('',#1326,#1327);
#1326 = CARTESIAN_POINT('',(3.09877119275,110.89083307981,44.27216606171
    ));
#1327 = VECTOR('',#1328,1.);
#1328 = DIRECTION('',(0.998615906417,0.,5.259535578893E-02));
#1329 = ORIENTED_EDGE('',*,*,#1292,.F.);
#1330 = ORIENTED_EDGE('',*,*,#87,.F.);
#1331 = PLANE('',#1332);
#1332 = AXIS2_PLACEMENT_3D('',#1333,#1334,#1335);
#1333 = CARTESIAN_POINT('',(3.09877119275,-110.8908330798,44.27216606171
    ));
#1334 = DIRECTION('',(5.259535578893E-02,0.,-0.998615906417));
#1335 = DIRECTION('',(0.998615906417,0.,5.259535578893E-02));
#1336 = ADVANCED_FACE('',(#1337),#1355,.F.);
#1337 = FACE_BOUND('',#1338,.F.);
#1338 = EDGE_LOOP('',(#1339,#1347,#1353,#1354));
#1339 = ORIENTED_EDGE('',*,*,#1340,.T.);
#1340 = EDGE_CURVE('',#72,#1341,#1343,.T.);
#1341 = VERTEX_POINT('',#1342);
#1342 = CARTESIAN_POINT('',(2.49877119275,110.89083307981,
    44.196696091007));
#1343 = LINE('',#1344,#1345);
#1344 = CARTESIAN_POINT('',(2.49877119275,-110.8908330798,
    44.196696091007));
#1345 = VECTOR('',#1346,1.);
#1346 = DIRECTION('',(0.,1.,0.));
#1347 = ORIENTED_EDGE('',*,*,#1348,.T.);
#1348 = EDGE_CURVE('',#1341,#1317,#1349,.T.);
#1349 = LINE('',#1350,#1351);
#1350 = CARTESIAN_POINT('',(2.49877119275,110.89083307981,
    44.196696091007));
#1351 = VECTOR('',#1352,1.);
#1352 = DIRECTION('',(0.992181931115,0.,0.124799902122));
#1353 = ORIENTED_EDGE('',*,*,#1316,.F.);
#1354 = ORIENTED_EDGE('',*,*,#79,.F.);
#1355 = PLANE('',#1356);
#1356 = AXIS2_PLACEMENT_3D('',#1357,#1358,#1359);
#1357 = CARTESIAN_POINT('',(2.49877119275,-110.8908330798,
    44.196696091007));
#1358 = DIRECTION('',(0.124799902122,0.,-0.992181931115));
#1359 = DIRECTION('',(0.992181931115,0.,0.124799902122));
#1360 = ADVANCED_FACE('',(#1361),#1379,.F.);
#1361 = FACE_BOUND('',#1362,.F.);
#1362 = EDGE_LOOP('',(#1363,#1371,#1377,#1378));
#1363 = ORIENTED_EDGE('',*,*,#1364,.T.);
#1364 = EDGE_CURVE('',#64,#1365,#1367,.T.);
#1365 = VERTEX_POINT('',#1366);
#1366 = CARTESIAN_POINT('',(1.89877119275,110.89083307981,
    44.186121750187));
#1367 = LINE('',#1368,#1369);
#1368 = CARTESIAN_POINT('',(1.89877119275,-110.8908330798,
    44.186121750187));
#1369 = VECTOR('',#1370,1.);
#1370 = DIRECTION('',(0.,1.,0.));
#1371 = ORIENTED_EDGE('',*,*,#1372,.T.);
#1372 = EDGE_CURVE('',#1365,#1341,#1373,.T.);
#1373 = LINE('',#1374,#1375);
#1374 = CARTESIAN_POINT('',(1.89877119275,110.89083307981,
    44.186121750187));
#1375 = VECTOR('',#1376,1.);
#1376 = DIRECTION('',(0.999844735219,0.,1.762116499599E-02));
#1377 = ORIENTED_EDGE('',*,*,#1340,.F.);
#1378 = ORIENTED_EDGE('',*,*,#71,.F.);
#1379 = PLANE('',#1380);
#1380 = AXIS2_PLACEMENT_3D('',#1381,#1382,#1383);
#1381 = CARTESIAN_POINT('',(1.89877119275,-110.8908330798,
    44.186121750187));
#1382 = DIRECTION('',(1.762116499599E-02,0.,-0.999844735219));
#1383 = DIRECTION('',(0.999844735219,0.,1.762116499599E-02));
#1384 = ADVANCED_FACE('',(#1385),#1403,.F.);
#1385 = FACE_BOUND('',#1386,.F.);
#1386 = EDGE_LOOP('',(#1387,#1395,#1401,#1402));
#1387 = ORIENTED_EDGE('',*,*,#1388,.T.);
#1388 = EDGE_CURVE('',#56,#1389,#1391,.T.);
#1389 = VERTEX_POINT('',#1390);
#1390 = CARTESIAN_POINT('',(1.29877119275,110.89083307981,
    44.284189987492));
#1391 = LINE('',#1392,#1393);
#1392 = CARTESIAN_POINT('',(1.29877119275,-110.8908330798,
    44.284189987492));
#1393 = VECTOR('',#1394,1.);
#1394 = DIRECTION('',(0.,1.,0.));
#1395 = ORIENTED_EDGE('',*,*,#1396,.T.);
#1396 = EDGE_CURVE('',#1389,#1365,#1397,.T.);
#1397 = LINE('',#1398,#1399);
#1398 = CARTESIAN_POINT('',(1.29877119275,110.89083307981,
    44.284189987492));
#1399 = VECTOR('',#1400,1.);
#1400 = DIRECTION('',(0.986904339822,0.,-0.161306614991));
#1401 = ORIENTED_EDGE('',*,*,#1364,.F.);
#1402 = ORIENTED_EDGE('',*,*,#63,.F.);
#1403 = PLANE('',#1404);
#1404 = AXIS2_PLACEMENT_3D('',#1405,#1406,#1407);
#1405 = CARTESIAN_POINT('',(1.29877119275,-110.8908330798,
    44.284189987492));
#1406 = DIRECTION('',(-0.161306614991,0.,-0.986904339822));
#1407 = DIRECTION('',(0.986904339822,0.,-0.161306614991));
#1408 = ADVANCED_FACE('',(#1409),#1427,.F.);
#1409 = FACE_BOUND('',#1410,.F.);
#1410 = EDGE_LOOP('',(#1411,#1419,#1425,#1426));
#1411 = ORIENTED_EDGE('',*,*,#1412,.T.);
#1412 = EDGE_CURVE('',#48,#1413,#1415,.T.);
#1413 = VERTEX_POINT('',#1414);
#1414 = CARTESIAN_POINT('',(0.69877119275,110.89083307981,
    44.009867477726));
#1415 = LINE('',#1416,#1417);
#1416 = CARTESIAN_POINT('',(0.69877119275,-110.8908330798,
    44.009867477726));
#1417 = VECTOR('',#1418,1.);
#1418 = DIRECTION('',(0.,1.,0.));
#1419 = ORIENTED_EDGE('',*,*,#1420,.T.);
#1420 = EDGE_CURVE('',#1413,#1389,#1421,.T.);
#1421 = LINE('',#1422,#1423);
#1422 = CARTESIAN_POINT('',(0.69877119275,110.89083307981,
    44.009867477726));
#1423 = VECTOR('',#1424,1.);
#1424 = DIRECTION('',(0.909453385384,0.,0.415805891989));
#1425 = ORIENTED_EDGE('',*,*,#1388,.F.);
#1426 = ORIENTED_EDGE('',*,*,#55,.F.);
#1427 = PLANE('',#1428);
#1428 = AXIS2_PLACEMENT_3D('',#1429,#1430,#1431);
#1429 = CARTESIAN_POINT('',(0.69877119275,-110.8908330798,
    44.009867477726));
#1430 = DIRECTION('',(0.415805891989,0.,-0.909453385384));
#1431 = DIRECTION('',(0.909453385384,0.,0.415805891989));
#1432 = ADVANCED_FACE('',(#1433),#1451,.F.);
#1433 = FACE_BOUND('',#1434,.F.);
#1434 = EDGE_LOOP('',(#1435,#1443,#1449,#1450));
#1435 = ORIENTED_EDGE('',*,*,#1436,.T.);
#1436 = EDGE_CURVE('',#40,#1437,#1439,.T.);
#1437 = VERTEX_POINT('',#1438);
#1438 = CARTESIAN_POINT('',(9.877119275041E-02,110.89083307981,
    43.819773483585));
#1439 = LINE('',#1440,#1441);
#1440 = CARTESIAN_POINT('',(9.877119275041E-02,-110.8908330798,
    43.819773483585));
#1441 = VECTOR('',#1442,1.);
#1442 = DIRECTION('',(0.,1.,0.));
#1443 = ORIENTED_EDGE('',*,*,#1444,.T.);
#1444 = EDGE_CURVE('',#1437,#1413,#1445,.T.);
#1445 = LINE('',#1446,#1447);
#1446 = CARTESIAN_POINT('',(9.877119275041E-02,110.89083307981,
    43.819773483585));
#1447 = VECTOR('',#1448,1.);
#1448 = DIRECTION('',(0.953299234464,0.,0.302027431817));
#1449 = ORIENTED_EDGE('',*,*,#1412,.F.);
#1450 = ORIENTED_EDGE('',*,*,#47,.F.);
#1451 = PLANE('',#1452);
#1452 = AXIS2_PLACEMENT_3D('',#1453,#1454,#1455);
#1453 = CARTESIAN_POINT('',(9.877119275041E-02,-110.8908330798,
    43.819773483585));
#1454 = DIRECTION('',(0.302027431817,0.,-0.953299234464));
#1455 = DIRECTION('',(0.953299234464,0.,0.302027431817));
#1456 = ADVANCED_FACE('',(#1457),#1475,.F.);
#1457 = FACE_BOUND('',#1458,.F.);
#1458 = EDGE_LOOP('',(#1459,#1460,#1468,#1474));
#1459 = ORIENTED_EDGE('',*,*,#39,.F.);
#1460 = ORIENTED_EDGE('',*,*,#1461,.F.);
#1461 = EDGE_CURVE('',#1462,#32,#1464,.T.);
#1462 = VERTEX_POINT('',#1463);
#1463 = CARTESIAN_POINT('',(-4.492527069664E-17,110.89083307981,
    43.788799474954));
#1464 = LINE('',#1465,#1466);
#1465 = CARTESIAN_POINT('',(8.655350240042E-18,-125.8908330798,
    43.788799474954));
#1466 = VECTOR('',#1467,1.);
#1467 = DIRECTION('',(0.,-1.,0.));
#1468 = ORIENTED_EDGE('',*,*,#1469,.T.);
#1469 = EDGE_CURVE('',#1462,#1437,#1470,.T.);
#1470 = LINE('',#1471,#1472);
#1471 = CARTESIAN_POINT('',(-0.50122880725,110.89083307981,
    43.631617355656));
#1472 = VECTOR('',#1473,1.);
#1473 = DIRECTION('',(0.954182439059,0.,0.29922545512));
#1474 = ORIENTED_EDGE('',*,*,#1436,.F.);
#1475 = PLANE('',#1476);
#1476 = AXIS2_PLACEMENT_3D('',#1477,#1478,#1479);
#1477 = CARTESIAN_POINT('',(-0.50122880725,-110.8908330798,
    43.631617355656));
#1478 = DIRECTION('',(0.29922545512,0.,-0.954182439059));
#1479 = DIRECTION('',(0.954182439059,0.,0.29922545512));
#1480 = ADVANCED_FACE('',(#1481),#1492,.F.);
#1481 = FACE_BOUND('',#1482,.F.);
#1482 = EDGE_LOOP('',(#1483,#1484,#1485,#1486));
#1483 = ORIENTED_EDGE('',*,*,#1461,.T.);
#1484 = ORIENTED_EDGE('',*,*,#31,.T.);
#1485 = ORIENTED_EDGE('',*,*,#397,.T.);
#1486 = ORIENTED_EDGE('',*,*,#1487,.F.);
#1487 = EDGE_CURVE('',#1462,#398,#1488,.T.);
#1488 = LINE('',#1489,#1490);
#1489 = CARTESIAN_POINT('',(0.,110.89083307981,-48.85423971));
#1490 = VECTOR('',#1491,1.);
#1491 = DIRECTION('',(-0.,0.,-1.));
#1492 = PLANE('',#1493);
#1493 = AXIS2_PLACEMENT_3D('',#1494,#1495,#1496);
#1494 = CARTESIAN_POINT('',(0.,-140.8908330798,-67.98472785918));
#1495 = DIRECTION('',(1.,0.,-0.));
#1496 = DIRECTION('',(0.,0.,1.));
#1497 = ADVANCED_FACE('',(#1498),#1546,.T.);
#1498 = FACE_BOUND('',#1499,.T.);
#1499 = EDGE_LOOP('',(#1500,#1501,#1502,#1503,#1504,#1505,#1506,#1507,
    #1508,#1509,#1510,#1511,#1512,#1513,#1514,#1515,#1516,#1517,#1518,
    #1519,#1520,#1521,#1522,#1523,#1524,#1525,#1526,#1527,#1528,#1529,
    #1530,#1531,#1532,#1533,#1534,#1535,#1536,#1537,#1538,#1539,#1540,
    #1541,#1542,#1543,#1544,#1545));
#1500 = ORIENTED_EDGE('',*,*,#414,.F.);
#1501 = ORIENTED_EDGE('',*,*,#1487,.F.);
#1502 = ORIENTED_EDGE('',*,*,#1469,.T.);
#1503 = ORIENTED_EDGE('',*,*,#1444,.T.);
#1504 = ORIENTED_EDGE('',*,*,#1420,.T.);
#1505 = ORIENTED_EDGE('',*,*,#1396,.T.);
#1506 = ORIENTED_EDGE('',*,*,#1372,.T.);
#1507 = ORIENTED_EDGE('',*,*,#1348,.T.);
#1508 = ORIENTED_EDGE('',*,*,#1324,.T.);
#1509 = ORIENTED_EDGE('',*,*,#1300,.T.);
#1510 = ORIENTED_EDGE('',*,*,#1276,.T.);
#1511 = ORIENTED_EDGE('',*,*,#1252,.T.);
#1512 = ORIENTED_EDGE('',*,*,#1228,.T.);
#1513 = ORIENTED_EDGE('',*,*,#1204,.T.);
#1514 = ORIENTED_EDGE('',*,*,#1180,.T.);
#1515 = ORIENTED_EDGE('',*,*,#1156,.T.);
#1516 = ORIENTED_EDGE('',*,*,#1132,.T.);
#1517 = ORIENTED_EDGE('',*,*,#1108,.T.);
#1518 = ORIENTED_EDGE('',*,*,#1084,.T.);
#1519 = ORIENTED_EDGE('',*,*,#1060,.T.);
#1520 = ORIENTED_EDGE('',*,*,#1036,.T.);
#1521 = ORIENTED_EDGE('',*,*,#1012,.T.);
#1522 = ORIENTED_EDGE('',*,*,#988,.T.);
#1523 = ORIENTED_EDGE('',*,*,#964,.T.);
#1524 = ORIENTED_EDGE('',*,*,#940,.T.);
#1525 = ORIENTED_EDGE('',*,*,#916,.T.);
#1526 = ORIENTED_EDGE('',*,*,#892,.T.);
#1527 = ORIENTED_EDGE('',*,*,#868,.T.);
#1528 = ORIENTED_EDGE('',*,*,#844,.T.);
#1529 = ORIENTED_EDGE('',*,*,#820,.T.);
#1530 = ORIENTED_EDGE('',*,*,#796,.T.);
#1531 = ORIENTED_EDGE('',*,*,#772,.T.);
#1532 = ORIENTED_EDGE('',*,*,#748,.T.);
#1533 = ORIENTED_EDGE('',*,*,#724,.T.);
#1534 = ORIENTED_EDGE('',*,*,#700,.T.);
#1535 = ORIENTED_EDGE('',*,*,#676,.T.);
#1536 = ORIENTED_EDGE('',*,*,#652,.T.);
#1537 = ORIENTED_EDGE('',*,*,#628,.T.);
#1538 = ORIENTED_EDGE('',*,*,#604,.T.);
#1539 = ORIENTED_EDGE('',*,*,#580,.T.);
#1540 = ORIENTED_EDGE('',*,*,#556,.T.);
#1541 = ORIENTED_EDGE('',*,*,#532,.T.);
#1542 = ORIENTED_EDGE('',*,*,#508,.T.);
#1543 = ORIENTED_EDGE('',*,*,#484,.T.);
#1544 = ORIENTED_EDGE('',*,*,#460,.T.);
#1545 = ORIENTED_EDGE('',*,*,#437,.T.);
#1546 = PLANE('',#1547);
#1547 = AXIS2_PLACEMENT_3D('',#1548,#1549,#1550);
#1548 = CARTESIAN_POINT('',(0.106335114538,110.89083307981,
    -29.72375156081));
#1549 = DIRECTION('',(0.,1.,0.));
#1550 = DIRECTION('',(0.,-0.,1.));
#1551 = ( GEOMETRIC_REPRESENTATION_CONTEXT(3)
GLOBAL_UNCERTAINTY_ASSIGNED_CONTEXT((#1555))
GLOBAL_UNIT_ASSIGNED_CONTEXT((#1552,#1553,#1554)) REPRESENTATION_CONTEXT
('Context #1','3D Context with UNIT and UNCERTAINTY') );
#1552 = ( LENGTH_UNIT() NAMED_UNIT(*) SI_UNIT(.MILLI.,.METRE.) );
#1553 = ( NAMED_UNIT(*) PLANE_ANGLE_UNIT() SI_UNIT($,.RADIAN.) );
#1554 = ( NAMED_UNIT(*) SI_UNIT($,.STERADIAN.) SOLID_ANGLE_UNIT() );
#1555 = UNCERTAINTY_MEASURE_WITH_UNIT(LENGTH_MEASURE(1.E-07),#1552,
  'distance_accuracy_value','confusion accuracy');
#1556 = PRODUCT_RELATED_PRODUCT_CATEGORY('part',$,(#7));
ENDSEC;
END-ISO-10303-21;
