ISO-10303-21;
HEADER;
FILE_DESCRIPTION(('FreeCAD Model'),'2;1');
FILE_NAME('Open CASCADE Shape Model','2026-06-25T12:48:30',('FreeCAD'),(
    'FreeCAD'),'Open CASCADE STEP processor 7.8','FreeCAD','Unknown');
FILE_SCHEMA(('AUTOMOTIVE_DESIGN { 1 0 10303 214 1 1 1 1 }'));
ENDSEC;
DATA;
#1 = APPLICATION_PROTOCOL_DEFINITION('international standard',
  'automotive_design',2000,#2);
#2 = APPLICATION_CONTEXT(
  'core data for automotive mechanical design processes');
#3 = SHAPE_DEFINITION_REPRESENTATION(#4,#10);
#4 = PRODUCT_DEFINITION_SHAPE('','',#5);
#5 = PRODUCT_DEFINITION('design','',#6,#9);
#6 = PRODUCT_DEFINITION_FORMATION('','',#7);
#7 = PRODUCT('Open CASCADE STEP translator 7.8 3',
  'Open CASCADE STEP translator 7.8 3','',(#8));
#8 = PRODUCT_CONTEXT('',#2,'mechanical');
#9 = PRODUCT_DEFINITION_CONTEXT('part definition',#2,'design');
#10 = ADVANCED_BREP_SHAPE_REPRESENTATION('',(#11,#15),#1056);
#11 = AXIS2_PLACEMENT_3D('',#12,#13,#14);
#12 = CARTESIAN_POINT('',(0.,0.,0.));
#13 = DIRECTION('',(0.,0.,1.));
#14 = DIRECTION('',(1.,0.,-0.));
#15 = MANIFOLD_SOLID_BREP('',#16);
#16 = CLOSED_SHELL('',(#17,#57,#88,#119,#352,#585,#602,#619,#636,#653,
    #670,#687,#704,#721,#738,#755,#772,#789,#806,#823,#840,#857,#874,
    #891,#908,#925,#942,#959,#976,#993,#1010,#1027,#1044));
#17 = ADVANCED_FACE('',(#18),#52,.F.);
#18 = FACE_BOUND('',#19,.F.);
#19 = EDGE_LOOP('',(#20,#30,#38,#46));
#20 = ORIENTED_EDGE('',*,*,#21,.T.);
#21 = EDGE_CURVE('',#22,#24,#26,.T.);
#22 = VERTEX_POINT('',#23);
#23 = CARTESIAN_POINT('',(-16.70122880725,-110.8908330798,
    -29.23809547393));
#24 = VERTEX_POINT('',#25);
#25 = CARTESIAN_POINT('',(-16.70122880725,110.89083307981,
    -29.23809547393));
#26 = LINE('',#27,#28);
#27 = CARTESIAN_POINT('',(-16.70122880725,-110.8908330798,
    -29.23809547393));
#28 = VECTOR('',#29,1.);
#29 = DIRECTION('',(0.,1.,0.));
#30 = ORIENTED_EDGE('',*,*,#31,.T.);
#31 = EDGE_CURVE('',#24,#32,#34,.T.);
#32 = VERTEX_POINT('',#33);
#33 = CARTESIAN_POINT('',(-16.10122880725,110.89083307981,8.022814560245
    ));
#34 = LINE('',#35,#36);
#35 = CARTESIAN_POINT('',(-16.70122880725,110.89083307981,
    -29.23809547393));
#36 = VECTOR('',#37,1.);
#37 = DIRECTION('',(1.610057902009E-02,0.,0.999870377277));
#38 = ORIENTED_EDGE('',*,*,#39,.F.);
#39 = EDGE_CURVE('',#40,#32,#42,.T.);
#40 = VERTEX_POINT('',#41);
#41 = CARTESIAN_POINT('',(-16.10122880725,-110.8908330798,8.022814560245
    ));
#42 = LINE('',#43,#44);
#43 = CARTESIAN_POINT('',(-16.10122880725,-110.8908330798,8.022814560245
    ));
#44 = VECTOR('',#45,1.);
#45 = DIRECTION('',(0.,1.,0.));
#46 = ORIENTED_EDGE('',*,*,#47,.F.);
#47 = EDGE_CURVE('',#22,#40,#48,.T.);
#48 = LINE('',#49,#50);
#49 = CARTESIAN_POINT('',(-16.70122880725,-110.8908330798,
    -29.23809547393));
#50 = VECTOR('',#51,1.);
#51 = DIRECTION('',(1.610057902009E-02,0.,0.999870377277));
#52 = PLANE('',#53);
#53 = AXIS2_PLACEMENT_3D('',#54,#55,#56);
#54 = CARTESIAN_POINT('',(-16.70122880725,-110.8908330798,
    -29.23809547393));
#55 = DIRECTION('',(0.999870377277,0.,-1.610057902009E-02));
#56 = DIRECTION('',(1.610057902009E-02,0.,0.999870377277));
#57 = ADVANCED_FACE('',(#58),#83,.F.);
#58 = FACE_BOUND('',#59,.F.);
#59 = EDGE_LOOP('',(#60,#68,#76,#82));
#60 = ORIENTED_EDGE('',*,*,#61,.F.);
#61 = EDGE_CURVE('',#62,#22,#64,.T.);
#62 = VERTEX_POINT('',#63);
#63 = CARTESIAN_POINT('',(-16.70122880725,-110.8908330798,
    -37.98472785918));
#64 = LINE('',#65,#66);
#65 = CARTESIAN_POINT('',(-16.70122880725,-110.8908330798,
    -62.77139396636));
#66 = VECTOR('',#67,1.);
#67 = DIRECTION('',(0.,0.,1.));
#68 = ORIENTED_EDGE('',*,*,#69,.F.);
#69 = EDGE_CURVE('',#70,#62,#72,.T.);
#70 = VERTEX_POINT('',#71);
#71 = CARTESIAN_POINT('',(-16.70122880725,110.89083307981,
    -37.98472785918));
#72 = LINE('',#73,#74);
#73 = CARTESIAN_POINT('',(-16.70122880725,-135.8908330798,
    -37.98472785918));
#74 = VECTOR('',#75,1.);
#75 = DIRECTION('',(0.,-1.,0.));
#76 = ORIENTED_EDGE('',*,*,#77,.T.);
#77 = EDGE_CURVE('',#70,#24,#78,.T.);
#78 = LINE('',#79,#80);
#79 = CARTESIAN_POINT('',(-16.70122880725,110.89083307981,
    -62.77139396636));
#80 = VECTOR('',#81,1.);
#81 = DIRECTION('',(0.,0.,1.));
#82 = ORIENTED_EDGE('',*,*,#21,.F.);
#83 = PLANE('',#84);
#84 = AXIS2_PLACEMENT_3D('',#85,#86,#87);
#85 = CARTESIAN_POINT('',(-16.70122880725,-110.8908330798,
    -62.77139396636));
#86 = DIRECTION('',(1.,0.,0.));
#87 = DIRECTION('',(0.,0.,1.));
#88 = ADVANCED_FACE('',(#89),#114,.F.);
#89 = FACE_BOUND('',#90,.F.);
#90 = EDGE_LOOP('',(#91,#92,#100,#108));
#91 = ORIENTED_EDGE('',*,*,#39,.T.);
#92 = ORIENTED_EDGE('',*,*,#93,.T.);
#93 = EDGE_CURVE('',#32,#94,#96,.T.);
#94 = VERTEX_POINT('',#95);
#95 = CARTESIAN_POINT('',(-15.50122880725,110.89083307981,
    19.097285080265));
#96 = LINE('',#97,#98);
#97 = CARTESIAN_POINT('',(-16.10122880725,110.89083307981,8.022814560245
    ));
#98 = VECTOR('',#99,1.);
#99 = DIRECTION('',(5.409932100871E-02,0.,0.99853555944));
#100 = ORIENTED_EDGE('',*,*,#101,.F.);
#101 = EDGE_CURVE('',#102,#94,#104,.T.);
#102 = VERTEX_POINT('',#103);
#103 = CARTESIAN_POINT('',(-15.50122880725,-110.8908330798,
    19.097285080265));
#104 = LINE('',#105,#106);
#105 = CARTESIAN_POINT('',(-15.50122880725,-110.8908330798,
    19.097285080265));
#106 = VECTOR('',#107,1.);
#107 = DIRECTION('',(0.,1.,0.));
#108 = ORIENTED_EDGE('',*,*,#109,.F.);
#109 = EDGE_CURVE('',#40,#102,#110,.T.);
#110 = LINE('',#111,#112);
#111 = CARTESIAN_POINT('',(-16.10122880725,-110.8908330798,
    8.022814560245));
#112 = VECTOR('',#113,1.);
#113 = DIRECTION('',(5.409932100871E-02,0.,0.99853555944));
#114 = PLANE('',#115);
#115 = AXIS2_PLACEMENT_3D('',#116,#117,#118);
#116 = CARTESIAN_POINT('',(-16.10122880725,-110.8908330798,
    8.022814560245));
#117 = DIRECTION('',(0.99853555944,0.,-5.409932100871E-02));
#118 = DIRECTION('',(5.409932100871E-02,0.,0.99853555944));
#119 = ADVANCED_FACE('',(#120),#347,.F.);
#120 = FACE_BOUND('',#121,.F.);
#121 = EDGE_LOOP('',(#122,#130,#131,#132,#133,#141,#149,#157,#165,#173,
    #181,#189,#197,#205,#213,#221,#229,#237,#245,#253,#261,#269,#277,
    #285,#293,#301,#309,#317,#325,#333,#341));
#122 = ORIENTED_EDGE('',*,*,#123,.F.);
#123 = EDGE_CURVE('',#62,#124,#126,.T.);
#124 = VERTEX_POINT('',#125);
#125 = CARTESIAN_POINT('',(0.,-110.8908330798,-37.98472785918));
#126 = LINE('',#127,#128);
#127 = CARTESIAN_POINT('',(-33.29744684635,-110.8908330798,
    -37.98472785918));
#128 = VECTOR('',#129,1.);
#129 = DIRECTION('',(1.,0.,0.));
#130 = ORIENTED_EDGE('',*,*,#61,.T.);
#131 = ORIENTED_EDGE('',*,*,#47,.T.);
#132 = ORIENTED_EDGE('',*,*,#109,.T.);
#133 = ORIENTED_EDGE('',*,*,#134,.T.);
#134 = EDGE_CURVE('',#102,#135,#137,.T.);
#135 = VERTEX_POINT('',#136);
#136 = CARTESIAN_POINT('',(-14.90122880725,-110.8908330798,
    22.121348190617));
#137 = LINE('',#138,#139);
#138 = CARTESIAN_POINT('',(-15.50122880725,-110.8908330798,
    19.097285080265));
#139 = VECTOR('',#140,1.);
#140 = DIRECTION('',(0.194614930846,0.,0.980879721827));
#141 = ORIENTED_EDGE('',*,*,#142,.T.);
#142 = EDGE_CURVE('',#135,#143,#145,.T.);
#143 = VERTEX_POINT('',#144);
#144 = CARTESIAN_POINT('',(-14.30122880725,-110.8908330798,
    26.127787399601));
#145 = LINE('',#146,#147);
#146 = CARTESIAN_POINT('',(-14.90122880725,-110.8908330798,
    22.121348190617));
#147 = VECTOR('',#148,1.);
#148 = DIRECTION('',(0.148107271869,0.,0.988971301919));
#149 = ORIENTED_EDGE('',*,*,#150,.T.);
#150 = EDGE_CURVE('',#143,#151,#153,.T.);
#151 = VERTEX_POINT('',#152);
#152 = CARTESIAN_POINT('',(-13.70122880725,-110.8908330798,
    29.077235031437));
#153 = LINE('',#154,#155);
#154 = CARTESIAN_POINT('',(-14.30122880725,-110.8908330798,
    26.127787399601));
#155 = VECTOR('',#156,1.);
#156 = DIRECTION('',(0.199344994814,0.,0.979929371456));
#157 = ORIENTED_EDGE('',*,*,#158,.T.);
#158 = EDGE_CURVE('',#151,#159,#161,.T.);
#159 = VERTEX_POINT('',#160);
#160 = CARTESIAN_POINT('',(-13.10122880725,-110.8908330798,
    32.415751266788));
#161 = LINE('',#162,#163);
#162 = CARTESIAN_POINT('',(-13.70122880725,-110.8908330798,
    29.077235031437));
#163 = VECTOR('',#164,1.);
#164 = DIRECTION('',(0.176886587568,0.,0.984231240684));
#165 = ORIENTED_EDGE('',*,*,#166,.T.);
#166 = EDGE_CURVE('',#159,#167,#169,.T.);
#167 = VERTEX_POINT('',#168);
#168 = CARTESIAN_POINT('',(-12.50122880725,-110.8908330798,
    34.242808151554));
#169 = LINE('',#170,#171);
#170 = CARTESIAN_POINT('',(-13.10122880725,-110.8908330798,
    32.415751266788));
#171 = VECTOR('',#172,1.);
#172 = DIRECTION('',(0.312003711776,0.,0.950080882787));
#173 = ORIENTED_EDGE('',*,*,#174,.T.);
#174 = EDGE_CURVE('',#167,#175,#177,.T.);
#175 = VERTEX_POINT('',#176);
#176 = CARTESIAN_POINT('',(-11.90122880725,-110.8908330798,
    35.13202934296));
#177 = LINE('',#178,#179);
#178 = CARTESIAN_POINT('',(-12.50122880725,-110.8908330798,
    34.242808151554));
#179 = VECTOR('',#180,1.);
#180 = DIRECTION('',(0.559329197092,0.,0.828945625044));
#181 = ORIENTED_EDGE('',*,*,#182,.T.);
#182 = EDGE_CURVE('',#175,#183,#185,.T.);
#183 = VERTEX_POINT('',#184);
#184 = CARTESIAN_POINT('',(-11.30122880725,-110.8908330798,
    36.099329757999));
#185 = LINE('',#186,#187);
#186 = CARTESIAN_POINT('',(-11.90122880725,-110.8908330798,
    35.13202934296));
#187 = VECTOR('',#188,1.);
#188 = DIRECTION('',(0.527113371407,0.,0.849794971557));
#189 = ORIENTED_EDGE('',*,*,#190,.T.);
#190 = EDGE_CURVE('',#183,#191,#193,.T.);
#191 = VERTEX_POINT('',#192);
#192 = CARTESIAN_POINT('',(-10.70122880725,-110.8908330798,
    36.756129074406));
#193 = LINE('',#194,#195);
#194 = CARTESIAN_POINT('',(-11.30122880725,-110.8908330798,
    36.099329757999));
#195 = VECTOR('',#196,1.);
#196 = DIRECTION('',(0.674461632464,0.,0.738309898575));
#197 = ORIENTED_EDGE('',*,*,#198,.T.);
#198 = EDGE_CURVE('',#191,#199,#201,.T.);
#199 = VERTEX_POINT('',#200);
#200 = CARTESIAN_POINT('',(-10.10122880725,-110.8908330798,
    37.948160934757));
#201 = LINE('',#202,#203);
#202 = CARTESIAN_POINT('',(-10.70122880725,-110.8908330798,
    36.756129074406));
#203 = VECTOR('',#204,1.);
#204 = DIRECTION('',(0.449600319919,0.,0.893229842946));
#205 = ORIENTED_EDGE('',*,*,#206,.T.);
#206 = EDGE_CURVE('',#199,#207,#209,.T.);
#207 = VERTEX_POINT('',#208);
#208 = CARTESIAN_POINT('',(-9.50122880725,-110.8908330798,
    39.639414596867));
#209 = LINE('',#210,#211);
#210 = CARTESIAN_POINT('',(-10.10122880725,-110.8908330798,
    37.948160934757));
#211 = VECTOR('',#212,1.);
#212 = DIRECTION('',(0.334349330559,0.,0.94244921622));
#213 = ORIENTED_EDGE('',*,*,#214,.T.);
#214 = EDGE_CURVE('',#207,#215,#217,.T.);
#215 = VERTEX_POINT('',#216);
#216 = CARTESIAN_POINT('',(-8.90122880725,-110.8908330798,
    41.215327072452));
#217 = LINE('',#218,#219);
#218 = CARTESIAN_POINT('',(-9.50122880725,-110.8908330798,
    39.639414596867));
#219 = VECTOR('',#220,1.);
#220 = DIRECTION('',(0.355815304397,0.,0.934556295339));
#221 = ORIENTED_EDGE('',*,*,#222,.T.);
#222 = EDGE_CURVE('',#215,#223,#225,.T.);
#223 = VERTEX_POINT('',#224);
#224 = CARTESIAN_POINT('',(-8.30122880725,-110.8908330798,
    43.002695846867));
#225 = LINE('',#226,#227);
#226 = CARTESIAN_POINT('',(-8.90122880725,-110.8908330798,
    41.215327072452));
#227 = VECTOR('',#228,1.);
#228 = DIRECTION('',(0.318236917488,0.,0.948011215307));
#229 = ORIENTED_EDGE('',*,*,#230,.T.);
#230 = EDGE_CURVE('',#223,#231,#233,.T.);
#231 = VERTEX_POINT('',#232);
#232 = CARTESIAN_POINT('',(-7.70122880725,-110.8908330798,
    43.784693527531));
#233 = LINE('',#234,#235);
#234 = CARTESIAN_POINT('',(-8.30122880725,-110.8908330798,
    43.002695846867));
#235 = VECTOR('',#236,1.);
#236 = DIRECTION('',(0.608730825227,0.,0.793376822461));
#237 = ORIENTED_EDGE('',*,*,#238,.T.);
#238 = EDGE_CURVE('',#231,#239,#241,.T.);
#239 = VERTEX_POINT('',#240);
#240 = CARTESIAN_POINT('',(-7.10122880725,-110.8908330798,
    44.204188156437));
#241 = LINE('',#242,#243);
#242 = CARTESIAN_POINT('',(-7.70122880725,-110.8908330798,
    43.784693527531));
#243 = VECTOR('',#244,1.);
#244 = DIRECTION('',(0.819556091501,0.,0.57299896412));
#245 = ORIENTED_EDGE('',*,*,#246,.T.);
#246 = EDGE_CURVE('',#239,#247,#249,.T.);
#247 = VERTEX_POINT('',#248);
#248 = CARTESIAN_POINT('',(-6.50122880725,-110.8908330798,
    44.251200485538));
#249 = LINE('',#250,#251);
#250 = CARTESIAN_POINT('',(-7.10122880725,-110.8908330798,
    44.204188156437));
#251 = VECTOR('',#252,1.);
#252 = DIRECTION('',(0.996944396943,0.,7.811446347507E-02));
#253 = ORIENTED_EDGE('',*,*,#254,.T.);
#254 = EDGE_CURVE('',#247,#255,#257,.T.);
#255 = VERTEX_POINT('',#256);
#256 = CARTESIAN_POINT('',(-5.90122880725,-110.8908330798,
    44.179957199406));
#257 = LINE('',#258,#259);
#258 = CARTESIAN_POINT('',(-6.50122880725,-110.8908330798,
    44.251200485538));
#259 = VECTOR('',#260,1.);
#260 = DIRECTION('',(0.993024224512,0.,-0.117910514939));
#261 = ORIENTED_EDGE('',*,*,#262,.T.);
#262 = EDGE_CURVE('',#255,#263,#265,.T.);
#263 = VERTEX_POINT('',#264);
#264 = CARTESIAN_POINT('',(-5.30122880725,-110.8908330798,
    44.257319259952));
#265 = LINE('',#266,#267);
#266 = CARTESIAN_POINT('',(-5.90122880725,-110.8908330798,
    44.179957199406));
#267 = VECTOR('',#268,1.);
#268 = DIRECTION('',(0.991789882326,0.,0.127878181544));
#269 = ORIENTED_EDGE('',*,*,#270,.T.);
#270 = EDGE_CURVE('',#263,#271,#273,.T.);
#271 = VERTEX_POINT('',#272);
#272 = CARTESIAN_POINT('',(-4.70122880725,-110.8908330798,
    44.137202072452));
#273 = LINE('',#274,#275);
#274 = CARTESIAN_POINT('',(-5.30122880725,-110.8908330798,
    44.257319259952));
#275 = VECTOR('',#276,1.);
#276 = DIRECTION('',(0.98054382908,0.,-0.196300278283));
#277 = ORIENTED_EDGE('',*,*,#278,.T.);
#278 = EDGE_CURVE('',#271,#279,#281,.T.);
#279 = VERTEX_POINT('',#280);
#280 = CARTESIAN_POINT('',(-4.10122880725,-110.8908330798,
    44.240931320499));
#281 = LINE('',#282,#283);
#282 = CARTESIAN_POINT('',(-4.70122880725,-110.8908330798,
    44.137202072452));
#283 = VECTOR('',#284,1.);
#284 = DIRECTION('',(0.985382751644,0.,0.170355019777));
#285 = ORIENTED_EDGE('',*,*,#286,.T.);
#286 = EDGE_CURVE('',#279,#287,#289,.T.);
#287 = VERTEX_POINT('',#288);
#288 = CARTESIAN_POINT('',(-3.50122880725,-110.8908330798,
    44.278132248234));
#289 = LINE('',#290,#291);
#290 = CARTESIAN_POINT('',(-4.10122880725,-110.8908330798,
    44.240931320499));
#291 = VECTOR('',#292,1.);
#292 = DIRECTION('',(0.998083428118,0.,6.188271580385E-02));
#293 = ORIENTED_EDGE('',*,*,#294,.T.);
#294 = EDGE_CURVE('',#287,#295,#297,.T.);
#295 = VERTEX_POINT('',#296);
#296 = CARTESIAN_POINT('',(-2.90122880725,-110.8908330798,
    44.079417038273));
#297 = LINE('',#298,#299);
#298 = CARTESIAN_POINT('',(-3.50122880725,-110.8908330798,
    44.278132248234));
#299 = VECTOR('',#300,1.);
#300 = DIRECTION('',(0.949291354103,0.,-0.314397717908));
#301 = ORIENTED_EDGE('',*,*,#302,.T.);
#302 = EDGE_CURVE('',#295,#303,#305,.T.);
#303 = VERTEX_POINT('',#304);
#304 = CARTESIAN_POINT('',(-2.30122880725,-110.8908330798,
    43.854975509952));
#305 = LINE('',#306,#307);
#306 = CARTESIAN_POINT('',(-2.90122880725,-110.8908330798,
    44.079417038273));
#307 = VECTOR('',#308,1.);
#308 = DIRECTION('',(0.936615481087,0.,-0.350359016706));
#309 = ORIENTED_EDGE('',*,*,#310,.T.);
#310 = EDGE_CURVE('',#303,#311,#313,.T.);
#311 = VERTEX_POINT('',#312);
#312 = CARTESIAN_POINT('',(-1.70122880725,-110.8908330798,
    43.837916183781));
#313 = LINE('',#314,#315);
#314 = CARTESIAN_POINT('',(-2.30122880725,-110.8908330798,
    43.854975509952));
#315 = VECTOR('',#316,1.);
#316 = DIRECTION('',(0.999596049605,0.,-2.842072508388E-02));
#317 = ORIENTED_EDGE('',*,*,#318,.T.);
#318 = EDGE_CURVE('',#311,#319,#321,.T.);
#319 = VERTEX_POINT('',#320);
#320 = CARTESIAN_POINT('',(-1.10122880725,-110.8908330798,
    43.829798507999));
#321 = LINE('',#322,#323);
#322 = CARTESIAN_POINT('',(-1.70122880725,-110.8908330798,
    43.837916183781));
#323 = VECTOR('',#324,1.);
#324 = DIRECTION('',(0.999908489424,0.,-1.352822154677E-02));
#325 = ORIENTED_EDGE('',*,*,#326,.T.);
#326 = EDGE_CURVE('',#319,#327,#329,.T.);
#327 = VERTEX_POINT('',#328);
#328 = CARTESIAN_POINT('',(-0.50122880725,-110.8908330798,
    43.631617355656));
#329 = LINE('',#330,#331);
#330 = CARTESIAN_POINT('',(-1.10122880725,-110.8908330798,
    43.829798507999));
#331 = VECTOR('',#332,1.);
#332 = DIRECTION('',(0.949543298195,0.,-0.313635975061));
#333 = ORIENTED_EDGE('',*,*,#334,.T.);
#334 = EDGE_CURVE('',#327,#335,#337,.T.);
#335 = VERTEX_POINT('',#336);
#336 = CARTESIAN_POINT('',(-4.492527069664E-17,-110.8908330798,
    43.788799474954));
#337 = LINE('',#338,#339);
#338 = CARTESIAN_POINT('',(-0.50122880725,-110.8908330798,
    43.631617355656));
#339 = VECTOR('',#340,1.);
#340 = DIRECTION('',(0.954182439059,0.,0.29922545512));
#341 = ORIENTED_EDGE('',*,*,#342,.T.);
#342 = EDGE_CURVE('',#335,#124,#343,.T.);
#343 = LINE('',#344,#345);
#344 = CARTESIAN_POINT('',(0.,-110.8908330798,-48.85423971));
#345 = VECTOR('',#346,1.);
#346 = DIRECTION('',(-0.,0.,-1.));
#347 = PLANE('',#348);
#348 = AXIS2_PLACEMENT_3D('',#349,#350,#351);
#349 = CARTESIAN_POINT('',(0.106335114538,-110.8908330798,
    -29.72375156081));
#350 = DIRECTION('',(0.,1.,0.));
#351 = DIRECTION('',(0.,-0.,1.));
#352 = ADVANCED_FACE('',(#353),#580,.T.);
#353 = FACE_BOUND('',#354,.T.);
#354 = EDGE_LOOP('',(#355,#363,#364,#365,#366,#374,#382,#390,#398,#406,
    #414,#422,#430,#438,#446,#454,#462,#470,#478,#486,#494,#502,#510,
    #518,#526,#534,#542,#550,#558,#566,#574));
#355 = ORIENTED_EDGE('',*,*,#356,.F.);
#356 = EDGE_CURVE('',#70,#357,#359,.T.);
#357 = VERTEX_POINT('',#358);
#358 = CARTESIAN_POINT('',(0.,110.89083307981,-37.98472785918));
#359 = LINE('',#360,#361);
#360 = CARTESIAN_POINT('',(-33.29744684635,110.89083307981,
    -37.98472785918));
#361 = VECTOR('',#362,1.);
#362 = DIRECTION('',(1.,0.,0.));
#363 = ORIENTED_EDGE('',*,*,#77,.T.);
#364 = ORIENTED_EDGE('',*,*,#31,.T.);
#365 = ORIENTED_EDGE('',*,*,#93,.T.);
#366 = ORIENTED_EDGE('',*,*,#367,.T.);
#367 = EDGE_CURVE('',#94,#368,#370,.T.);
#368 = VERTEX_POINT('',#369);
#369 = CARTESIAN_POINT('',(-14.90122880725,110.89083307981,
    22.121348190617));
#370 = LINE('',#371,#372);
#371 = CARTESIAN_POINT('',(-15.50122880725,110.89083307981,
    19.097285080265));
#372 = VECTOR('',#373,1.);
#373 = DIRECTION('',(0.194614930846,0.,0.980879721827));
#374 = ORIENTED_EDGE('',*,*,#375,.T.);
#375 = EDGE_CURVE('',#368,#376,#378,.T.);
#376 = VERTEX_POINT('',#377);
#377 = CARTESIAN_POINT('',(-14.30122880725,110.89083307981,
    26.127787399601));
#378 = LINE('',#379,#380);
#379 = CARTESIAN_POINT('',(-14.90122880725,110.89083307981,
    22.121348190617));
#380 = VECTOR('',#381,1.);
#381 = DIRECTION('',(0.148107271869,0.,0.988971301919));
#382 = ORIENTED_EDGE('',*,*,#383,.T.);
#383 = EDGE_CURVE('',#376,#384,#386,.T.);
#384 = VERTEX_POINT('',#385);
#385 = CARTESIAN_POINT('',(-13.70122880725,110.89083307981,
    29.077235031437));
#386 = LINE('',#387,#388);
#387 = CARTESIAN_POINT('',(-14.30122880725,110.89083307981,
    26.127787399601));
#388 = VECTOR('',#389,1.);
#389 = DIRECTION('',(0.199344994814,0.,0.979929371456));
#390 = ORIENTED_EDGE('',*,*,#391,.T.);
#391 = EDGE_CURVE('',#384,#392,#394,.T.);
#392 = VERTEX_POINT('',#393);
#393 = CARTESIAN_POINT('',(-13.10122880725,110.89083307981,
    32.415751266788));
#394 = LINE('',#395,#396);
#395 = CARTESIAN_POINT('',(-13.70122880725,110.89083307981,
    29.077235031437));
#396 = VECTOR('',#397,1.);
#397 = DIRECTION('',(0.176886587568,0.,0.984231240684));
#398 = ORIENTED_EDGE('',*,*,#399,.T.);
#399 = EDGE_CURVE('',#392,#400,#402,.T.);
#400 = VERTEX_POINT('',#401);
#401 = CARTESIAN_POINT('',(-12.50122880725,110.89083307981,
    34.242808151554));
#402 = LINE('',#403,#404);
#403 = CARTESIAN_POINT('',(-13.10122880725,110.89083307981,
    32.415751266788));
#404 = VECTOR('',#405,1.);
#405 = DIRECTION('',(0.312003711776,0.,0.950080882787));
#406 = ORIENTED_EDGE('',*,*,#407,.T.);
#407 = EDGE_CURVE('',#400,#408,#410,.T.);
#408 = VERTEX_POINT('',#409);
#409 = CARTESIAN_POINT('',(-11.90122880725,110.89083307981,
    35.13202934296));
#410 = LINE('',#411,#412);
#411 = CARTESIAN_POINT('',(-12.50122880725,110.89083307981,
    34.242808151554));
#412 = VECTOR('',#413,1.);
#413 = DIRECTION('',(0.559329197092,0.,0.828945625044));
#414 = ORIENTED_EDGE('',*,*,#415,.T.);
#415 = EDGE_CURVE('',#408,#416,#418,.T.);
#416 = VERTEX_POINT('',#417);
#417 = CARTESIAN_POINT('',(-11.30122880725,110.89083307981,
    36.099329757999));
#418 = LINE('',#419,#420);
#419 = CARTESIAN_POINT('',(-11.90122880725,110.89083307981,
    35.13202934296));
#420 = VECTOR('',#421,1.);
#421 = DIRECTION('',(0.527113371407,0.,0.849794971557));
#422 = ORIENTED_EDGE('',*,*,#423,.T.);
#423 = EDGE_CURVE('',#416,#424,#426,.T.);
#424 = VERTEX_POINT('',#425);
#425 = CARTESIAN_POINT('',(-10.70122880725,110.89083307981,
    36.756129074406));
#426 = LINE('',#427,#428);
#427 = CARTESIAN_POINT('',(-11.30122880725,110.89083307981,
    36.099329757999));
#428 = VECTOR('',#429,1.);
#429 = DIRECTION('',(0.674461632464,0.,0.738309898575));
#430 = ORIENTED_EDGE('',*,*,#431,.T.);
#431 = EDGE_CURVE('',#424,#432,#434,.T.);
#432 = VERTEX_POINT('',#433);
#433 = CARTESIAN_POINT('',(-10.10122880725,110.89083307981,
    37.948160934757));
#434 = LINE('',#435,#436);
#435 = CARTESIAN_POINT('',(-10.70122880725,110.89083307981,
    36.756129074406));
#436 = VECTOR('',#437,1.);
#437 = DIRECTION('',(0.449600319919,0.,0.893229842946));
#438 = ORIENTED_EDGE('',*,*,#439,.T.);
#439 = EDGE_CURVE('',#432,#440,#442,.T.);
#440 = VERTEX_POINT('',#441);
#441 = CARTESIAN_POINT('',(-9.50122880725,110.89083307981,
    39.639414596867));
#442 = LINE('',#443,#444);
#443 = CARTESIAN_POINT('',(-10.10122880725,110.89083307981,
    37.948160934757));
#444 = VECTOR('',#445,1.);
#445 = DIRECTION('',(0.334349330559,0.,0.94244921622));
#446 = ORIENTED_EDGE('',*,*,#447,.T.);
#447 = EDGE_CURVE('',#440,#448,#450,.T.);
#448 = VERTEX_POINT('',#449);
#449 = CARTESIAN_POINT('',(-8.90122880725,110.89083307981,
    41.215327072452));
#450 = LINE('',#451,#452);
#451 = CARTESIAN_POINT('',(-9.50122880725,110.89083307981,
    39.639414596867));
#452 = VECTOR('',#453,1.);
#453 = DIRECTION('',(0.355815304397,0.,0.934556295339));
#454 = ORIENTED_EDGE('',*,*,#455,.T.);
#455 = EDGE_CURVE('',#448,#456,#458,.T.);
#456 = VERTEX_POINT('',#457);
#457 = CARTESIAN_POINT('',(-8.30122880725,110.89083307981,
    43.002695846867));
#458 = LINE('',#459,#460);
#459 = CARTESIAN_POINT('',(-8.90122880725,110.89083307981,
    41.215327072452));
#460 = VECTOR('',#461,1.);
#461 = DIRECTION('',(0.318236917488,0.,0.948011215307));
#462 = ORIENTED_EDGE('',*,*,#463,.T.);
#463 = EDGE_CURVE('',#456,#464,#466,.T.);
#464 = VERTEX_POINT('',#465);
#465 = CARTESIAN_POINT('',(-7.70122880725,110.89083307981,
    43.784693527531));
#466 = LINE('',#467,#468);
#467 = CARTESIAN_POINT('',(-8.30122880725,110.89083307981,
    43.002695846867));
#468 = VECTOR('',#469,1.);
#469 = DIRECTION('',(0.608730825227,0.,0.793376822461));
#470 = ORIENTED_EDGE('',*,*,#471,.T.);
#471 = EDGE_CURVE('',#464,#472,#474,.T.);
#472 = VERTEX_POINT('',#473);
#473 = CARTESIAN_POINT('',(-7.10122880725,110.89083307981,
    44.204188156437));
#474 = LINE('',#475,#476);
#475 = CARTESIAN_POINT('',(-7.70122880725,110.89083307981,
    43.784693527531));
#476 = VECTOR('',#477,1.);
#477 = DIRECTION('',(0.819556091501,0.,0.57299896412));
#478 = ORIENTED_EDGE('',*,*,#479,.T.);
#479 = EDGE_CURVE('',#472,#480,#482,.T.);
#480 = VERTEX_POINT('',#481);
#481 = CARTESIAN_POINT('',(-6.50122880725,110.89083307981,
    44.251200485538));
#482 = LINE('',#483,#484);
#483 = CARTESIAN_POINT('',(-7.10122880725,110.89083307981,
    44.204188156437));
#484 = VECTOR('',#485,1.);
#485 = DIRECTION('',(0.996944396943,0.,7.811446347507E-02));
#486 = ORIENTED_EDGE('',*,*,#487,.T.);
#487 = EDGE_CURVE('',#480,#488,#490,.T.);
#488 = VERTEX_POINT('',#489);
#489 = CARTESIAN_POINT('',(-5.90122880725,110.89083307981,
    44.179957199406));
#490 = LINE('',#491,#492);
#491 = CARTESIAN_POINT('',(-6.50122880725,110.89083307981,
    44.251200485538));
#492 = VECTOR('',#493,1.);
#493 = DIRECTION('',(0.993024224512,0.,-0.117910514939));
#494 = ORIENTED_EDGE('',*,*,#495,.T.);
#495 = EDGE_CURVE('',#488,#496,#498,.T.);
#496 = VERTEX_POINT('',#497);
#497 = CARTESIAN_POINT('',(-5.30122880725,110.89083307981,
    44.257319259952));
#498 = LINE('',#499,#500);
#499 = CARTESIAN_POINT('',(-5.90122880725,110.89083307981,
    44.179957199406));
#500 = VECTOR('',#501,1.);
#501 = DIRECTION('',(0.991789882326,0.,0.127878181544));
#502 = ORIENTED_EDGE('',*,*,#503,.T.);
#503 = EDGE_CURVE('',#496,#504,#506,.T.);
#504 = VERTEX_POINT('',#505);
#505 = CARTESIAN_POINT('',(-4.70122880725,110.89083307981,
    44.137202072452));
#506 = LINE('',#507,#508);
#507 = CARTESIAN_POINT('',(-5.30122880725,110.89083307981,
    44.257319259952));
#508 = VECTOR('',#509,1.);
#509 = DIRECTION('',(0.98054382908,0.,-0.196300278283));
#510 = ORIENTED_EDGE('',*,*,#511,.T.);
#511 = EDGE_CURVE('',#504,#512,#514,.T.);
#512 = VERTEX_POINT('',#513);
#513 = CARTESIAN_POINT('',(-4.10122880725,110.89083307981,
    44.240931320499));
#514 = LINE('',#515,#516);
#515 = CARTESIAN_POINT('',(-4.70122880725,110.89083307981,
    44.137202072452));
#516 = VECTOR('',#517,1.);
#517 = DIRECTION('',(0.985382751644,0.,0.170355019777));
#518 = ORIENTED_EDGE('',*,*,#519,.T.);
#519 = EDGE_CURVE('',#512,#520,#522,.T.);
#520 = VERTEX_POINT('',#521);
#521 = CARTESIAN_POINT('',(-3.50122880725,110.89083307981,
    44.278132248234));
#522 = LINE('',#523,#524);
#523 = CARTESIAN_POINT('',(-4.10122880725,110.89083307981,
    44.240931320499));
#524 = VECTOR('',#525,1.);
#525 = DIRECTION('',(0.998083428118,0.,6.188271580385E-02));
#526 = ORIENTED_EDGE('',*,*,#527,.T.);
#527 = EDGE_CURVE('',#520,#528,#530,.T.);
#528 = VERTEX_POINT('',#529);
#529 = CARTESIAN_POINT('',(-2.90122880725,110.89083307981,
    44.079417038273));
#530 = LINE('',#531,#532);
#531 = CARTESIAN_POINT('',(-3.50122880725,110.89083307981,
    44.278132248234));
#532 = VECTOR('',#533,1.);
#533 = DIRECTION('',(0.949291354103,0.,-0.314397717908));
#534 = ORIENTED_EDGE('',*,*,#535,.T.);
#535 = EDGE_CURVE('',#528,#536,#538,.T.);
#536 = VERTEX_POINT('',#537);
#537 = CARTESIAN_POINT('',(-2.30122880725,110.89083307981,
    43.854975509952));
#538 = LINE('',#539,#540);
#539 = CARTESIAN_POINT('',(-2.90122880725,110.89083307981,
    44.079417038273));
#540 = VECTOR('',#541,1.);
#541 = DIRECTION('',(0.936615481087,0.,-0.350359016706));
#542 = ORIENTED_EDGE('',*,*,#543,.T.);
#543 = EDGE_CURVE('',#536,#544,#546,.T.);
#544 = VERTEX_POINT('',#545);
#545 = CARTESIAN_POINT('',(-1.70122880725,110.89083307981,
    43.837916183781));
#546 = LINE('',#547,#548);
#547 = CARTESIAN_POINT('',(-2.30122880725,110.89083307981,
    43.854975509952));
#548 = VECTOR('',#549,1.);
#549 = DIRECTION('',(0.999596049605,0.,-2.842072508388E-02));
#550 = ORIENTED_EDGE('',*,*,#551,.T.);
#551 = EDGE_CURVE('',#544,#552,#554,.T.);
#552 = VERTEX_POINT('',#553);
#553 = CARTESIAN_POINT('',(-1.10122880725,110.89083307981,
    43.829798507999));
#554 = LINE('',#555,#556);
#555 = CARTESIAN_POINT('',(-1.70122880725,110.89083307981,
    43.837916183781));
#556 = VECTOR('',#557,1.);
#557 = DIRECTION('',(0.999908489424,0.,-1.352822154677E-02));
#558 = ORIENTED_EDGE('',*,*,#559,.T.);
#559 = EDGE_CURVE('',#552,#560,#562,.T.);
#560 = VERTEX_POINT('',#561);
#561 = CARTESIAN_POINT('',(-0.50122880725,110.89083307981,
    43.631617355656));
#562 = LINE('',#563,#564);
#563 = CARTESIAN_POINT('',(-1.10122880725,110.89083307981,
    43.829798507999));
#564 = VECTOR('',#565,1.);
#565 = DIRECTION('',(0.949543298195,0.,-0.313635975061));
#566 = ORIENTED_EDGE('',*,*,#567,.T.);
#567 = EDGE_CURVE('',#560,#568,#570,.T.);
#568 = VERTEX_POINT('',#569);
#569 = CARTESIAN_POINT('',(-4.492527069664E-17,110.89083307981,
    43.788799474954));
#570 = LINE('',#571,#572);
#571 = CARTESIAN_POINT('',(-0.50122880725,110.89083307981,
    43.631617355656));
#572 = VECTOR('',#573,1.);
#573 = DIRECTION('',(0.954182439059,0.,0.29922545512));
#574 = ORIENTED_EDGE('',*,*,#575,.T.);
#575 = EDGE_CURVE('',#568,#357,#576,.T.);
#576 = LINE('',#577,#578);
#577 = CARTESIAN_POINT('',(0.,110.89083307981,-48.85423971));
#578 = VECTOR('',#579,1.);
#579 = DIRECTION('',(-0.,0.,-1.));
#580 = PLANE('',#581);
#581 = AXIS2_PLACEMENT_3D('',#582,#583,#584);
#582 = CARTESIAN_POINT('',(0.106335114538,110.89083307981,
    -29.72375156081));
#583 = DIRECTION('',(0.,1.,0.));
#584 = DIRECTION('',(0.,-0.,1.));
#585 = ADVANCED_FACE('',(#586),#597,.F.);
#586 = FACE_BOUND('',#587,.F.);
#587 = EDGE_LOOP('',(#588,#589,#590,#596));
#588 = ORIENTED_EDGE('',*,*,#69,.T.);
#589 = ORIENTED_EDGE('',*,*,#123,.T.);
#590 = ORIENTED_EDGE('',*,*,#591,.T.);
#591 = EDGE_CURVE('',#124,#357,#592,.T.);
#592 = LINE('',#593,#594);
#593 = CARTESIAN_POINT('',(0.,-150.8908330798,-37.98472785918));
#594 = VECTOR('',#595,1.);
#595 = DIRECTION('',(-0.,1.,0.));
#596 = ORIENTED_EDGE('',*,*,#356,.F.);
#597 = PLANE('',#598);
#598 = AXIS2_PLACEMENT_3D('',#599,#600,#601);
#599 = CARTESIAN_POINT('',(-66.70122880725,-160.8908330798,
    -37.98472785918));
#600 = DIRECTION('',(0.,0.,1.));
#601 = DIRECTION('',(1.,0.,-0.));
#602 = ADVANCED_FACE('',(#603),#614,.F.);
#603 = FACE_BOUND('',#604,.F.);
#604 = EDGE_LOOP('',(#605,#606,#607,#613));
#605 = ORIENTED_EDGE('',*,*,#101,.T.);
#606 = ORIENTED_EDGE('',*,*,#367,.T.);
#607 = ORIENTED_EDGE('',*,*,#608,.F.);
#608 = EDGE_CURVE('',#135,#368,#609,.T.);
#609 = LINE('',#610,#611);
#610 = CARTESIAN_POINT('',(-14.90122880725,-110.8908330798,
    22.121348190617));
#611 = VECTOR('',#612,1.);
#612 = DIRECTION('',(0.,1.,0.));
#613 = ORIENTED_EDGE('',*,*,#134,.F.);
#614 = PLANE('',#615);
#615 = AXIS2_PLACEMENT_3D('',#616,#617,#618);
#616 = CARTESIAN_POINT('',(-15.50122880725,-110.8908330798,
    19.097285080265));
#617 = DIRECTION('',(0.980879721827,0.,-0.194614930846));
#618 = DIRECTION('',(0.194614930846,0.,0.980879721827));
#619 = ADVANCED_FACE('',(#620),#631,.T.);
#620 = FACE_BOUND('',#621,.T.);
#621 = EDGE_LOOP('',(#622,#628,#629,#630));
#622 = ORIENTED_EDGE('',*,*,#623,.T.);
#623 = EDGE_CURVE('',#568,#335,#624,.T.);
#624 = LINE('',#625,#626);
#625 = CARTESIAN_POINT('',(8.655350240042E-18,-125.8908330798,
    43.788799474954));
#626 = VECTOR('',#627,1.);
#627 = DIRECTION('',(0.,-1.,0.));
#628 = ORIENTED_EDGE('',*,*,#342,.T.);
#629 = ORIENTED_EDGE('',*,*,#591,.T.);
#630 = ORIENTED_EDGE('',*,*,#575,.F.);
#631 = PLANE('',#632);
#632 = AXIS2_PLACEMENT_3D('',#633,#634,#635);
#633 = CARTESIAN_POINT('',(0.,-140.8908330798,-67.98472785918));
#634 = DIRECTION('',(1.,0.,-0.));
#635 = DIRECTION('',(0.,0.,1.));
#636 = ADVANCED_FACE('',(#637),#648,.F.);
#637 = FACE_BOUND('',#638,.F.);
#638 = EDGE_LOOP('',(#639,#640,#646,#647));
#639 = ORIENTED_EDGE('',*,*,#334,.F.);
#640 = ORIENTED_EDGE('',*,*,#641,.T.);
#641 = EDGE_CURVE('',#327,#560,#642,.T.);
#642 = LINE('',#643,#644);
#643 = CARTESIAN_POINT('',(-0.50122880725,-110.8908330798,
    43.631617355656));
#644 = VECTOR('',#645,1.);
#645 = DIRECTION('',(0.,1.,0.));
#646 = ORIENTED_EDGE('',*,*,#567,.T.);
#647 = ORIENTED_EDGE('',*,*,#623,.T.);
#648 = PLANE('',#649);
#649 = AXIS2_PLACEMENT_3D('',#650,#651,#652);
#650 = CARTESIAN_POINT('',(-0.50122880725,-110.8908330798,
    43.631617355656));
#651 = DIRECTION('',(0.29922545512,0.,-0.954182439059));
#652 = DIRECTION('',(0.954182439059,0.,0.29922545512));
#653 = ADVANCED_FACE('',(#654),#665,.F.);
#654 = FACE_BOUND('',#655,.F.);
#655 = EDGE_LOOP('',(#656,#662,#663,#664));
#656 = ORIENTED_EDGE('',*,*,#657,.T.);
#657 = EDGE_CURVE('',#319,#552,#658,.T.);
#658 = LINE('',#659,#660);
#659 = CARTESIAN_POINT('',(-1.10122880725,-110.8908330798,
    43.829798507999));
#660 = VECTOR('',#661,1.);
#661 = DIRECTION('',(0.,1.,0.));
#662 = ORIENTED_EDGE('',*,*,#559,.T.);
#663 = ORIENTED_EDGE('',*,*,#641,.F.);
#664 = ORIENTED_EDGE('',*,*,#326,.F.);
#665 = PLANE('',#666);
#666 = AXIS2_PLACEMENT_3D('',#667,#668,#669);
#667 = CARTESIAN_POINT('',(-1.10122880725,-110.8908330798,
    43.829798507999));
#668 = DIRECTION('',(-0.313635975061,0.,-0.949543298195));
#669 = DIRECTION('',(0.949543298195,0.,-0.313635975061));
#670 = ADVANCED_FACE('',(#671),#682,.F.);
#671 = FACE_BOUND('',#672,.F.);
#672 = EDGE_LOOP('',(#673,#679,#680,#681));
#673 = ORIENTED_EDGE('',*,*,#674,.T.);
#674 = EDGE_CURVE('',#311,#544,#675,.T.);
#675 = LINE('',#676,#677);
#676 = CARTESIAN_POINT('',(-1.70122880725,-110.8908330798,
    43.837916183781));
#677 = VECTOR('',#678,1.);
#678 = DIRECTION('',(0.,1.,0.));
#679 = ORIENTED_EDGE('',*,*,#551,.T.);
#680 = ORIENTED_EDGE('',*,*,#657,.F.);
#681 = ORIENTED_EDGE('',*,*,#318,.F.);
#682 = PLANE('',#683);
#683 = AXIS2_PLACEMENT_3D('',#684,#685,#686);
#684 = CARTESIAN_POINT('',(-1.70122880725,-110.8908330798,
    43.837916183781));
#685 = DIRECTION('',(-1.352822154677E-02,0.,-0.999908489424));
#686 = DIRECTION('',(0.999908489424,0.,-1.352822154677E-02));
#687 = ADVANCED_FACE('',(#688),#699,.F.);
#688 = FACE_BOUND('',#689,.F.);
#689 = EDGE_LOOP('',(#690,#696,#697,#698));
#690 = ORIENTED_EDGE('',*,*,#691,.T.);
#691 = EDGE_CURVE('',#303,#536,#692,.T.);
#692 = LINE('',#693,#694);
#693 = CARTESIAN_POINT('',(-2.30122880725,-110.8908330798,
    43.854975509952));
#694 = VECTOR('',#695,1.);
#695 = DIRECTION('',(0.,1.,0.));
#696 = ORIENTED_EDGE('',*,*,#543,.T.);
#697 = ORIENTED_EDGE('',*,*,#674,.F.);
#698 = ORIENTED_EDGE('',*,*,#310,.F.);
#699 = PLANE('',#700);
#700 = AXIS2_PLACEMENT_3D('',#701,#702,#703);
#701 = CARTESIAN_POINT('',(-2.30122880725,-110.8908330798,
    43.854975509952));
#702 = DIRECTION('',(-2.842072508388E-02,0.,-0.999596049605));
#703 = DIRECTION('',(0.999596049605,0.,-2.842072508388E-02));
#704 = ADVANCED_FACE('',(#705),#716,.F.);
#705 = FACE_BOUND('',#706,.F.);
#706 = EDGE_LOOP('',(#707,#713,#714,#715));
#707 = ORIENTED_EDGE('',*,*,#708,.T.);
#708 = EDGE_CURVE('',#295,#528,#709,.T.);
#709 = LINE('',#710,#711);
#710 = CARTESIAN_POINT('',(-2.90122880725,-110.8908330798,
    44.079417038273));
#711 = VECTOR('',#712,1.);
#712 = DIRECTION('',(0.,1.,0.));
#713 = ORIENTED_EDGE('',*,*,#535,.T.);
#714 = ORIENTED_EDGE('',*,*,#691,.F.);
#715 = ORIENTED_EDGE('',*,*,#302,.F.);
#716 = PLANE('',#717);
#717 = AXIS2_PLACEMENT_3D('',#718,#719,#720);
#718 = CARTESIAN_POINT('',(-2.90122880725,-110.8908330798,
    44.079417038273));
#719 = DIRECTION('',(-0.350359016706,0.,-0.936615481087));
#720 = DIRECTION('',(0.936615481087,0.,-0.350359016706));
#721 = ADVANCED_FACE('',(#722),#733,.F.);
#722 = FACE_BOUND('',#723,.F.);
#723 = EDGE_LOOP('',(#724,#730,#731,#732));
#724 = ORIENTED_EDGE('',*,*,#725,.T.);
#725 = EDGE_CURVE('',#287,#520,#726,.T.);
#726 = LINE('',#727,#728);
#727 = CARTESIAN_POINT('',(-3.50122880725,-110.8908330798,
    44.278132248234));
#728 = VECTOR('',#729,1.);
#729 = DIRECTION('',(0.,1.,0.));
#730 = ORIENTED_EDGE('',*,*,#527,.T.);
#731 = ORIENTED_EDGE('',*,*,#708,.F.);
#732 = ORIENTED_EDGE('',*,*,#294,.F.);
#733 = PLANE('',#734);
#734 = AXIS2_PLACEMENT_3D('',#735,#736,#737);
#735 = CARTESIAN_POINT('',(-3.50122880725,-110.8908330798,
    44.278132248234));
#736 = DIRECTION('',(-0.314397717908,0.,-0.949291354103));
#737 = DIRECTION('',(0.949291354103,0.,-0.314397717908));
#738 = ADVANCED_FACE('',(#739),#750,.F.);
#739 = FACE_BOUND('',#740,.F.);
#740 = EDGE_LOOP('',(#741,#747,#748,#749));
#741 = ORIENTED_EDGE('',*,*,#742,.T.);
#742 = EDGE_CURVE('',#279,#512,#743,.T.);
#743 = LINE('',#744,#745);
#744 = CARTESIAN_POINT('',(-4.10122880725,-110.8908330798,
    44.240931320499));
#745 = VECTOR('',#746,1.);
#746 = DIRECTION('',(0.,1.,0.));
#747 = ORIENTED_EDGE('',*,*,#519,.T.);
#748 = ORIENTED_EDGE('',*,*,#725,.F.);
#749 = ORIENTED_EDGE('',*,*,#286,.F.);
#750 = PLANE('',#751);
#751 = AXIS2_PLACEMENT_3D('',#752,#753,#754);
#752 = CARTESIAN_POINT('',(-4.10122880725,-110.8908330798,
    44.240931320499));
#753 = DIRECTION('',(6.188271580385E-02,0.,-0.998083428118));
#754 = DIRECTION('',(0.998083428118,0.,6.188271580385E-02));
#755 = ADVANCED_FACE('',(#756),#767,.F.);
#756 = FACE_BOUND('',#757,.F.);
#757 = EDGE_LOOP('',(#758,#764,#765,#766));
#758 = ORIENTED_EDGE('',*,*,#759,.T.);
#759 = EDGE_CURVE('',#271,#504,#760,.T.);
#760 = LINE('',#761,#762);
#761 = CARTESIAN_POINT('',(-4.70122880725,-110.8908330798,
    44.137202072452));
#762 = VECTOR('',#763,1.);
#763 = DIRECTION('',(0.,1.,0.));
#764 = ORIENTED_EDGE('',*,*,#511,.T.);
#765 = ORIENTED_EDGE('',*,*,#742,.F.);
#766 = ORIENTED_EDGE('',*,*,#278,.F.);
#767 = PLANE('',#768);
#768 = AXIS2_PLACEMENT_3D('',#769,#770,#771);
#769 = CARTESIAN_POINT('',(-4.70122880725,-110.8908330798,
    44.137202072452));
#770 = DIRECTION('',(0.170355019777,0.,-0.985382751644));
#771 = DIRECTION('',(0.985382751644,0.,0.170355019777));
#772 = ADVANCED_FACE('',(#773),#784,.F.);
#773 = FACE_BOUND('',#774,.F.);
#774 = EDGE_LOOP('',(#775,#781,#782,#783));
#775 = ORIENTED_EDGE('',*,*,#776,.T.);
#776 = EDGE_CURVE('',#263,#496,#777,.T.);
#777 = LINE('',#778,#779);
#778 = CARTESIAN_POINT('',(-5.30122880725,-110.8908330798,
    44.257319259952));
#779 = VECTOR('',#780,1.);
#780 = DIRECTION('',(0.,1.,0.));
#781 = ORIENTED_EDGE('',*,*,#503,.T.);
#782 = ORIENTED_EDGE('',*,*,#759,.F.);
#783 = ORIENTED_EDGE('',*,*,#270,.F.);
#784 = PLANE('',#785);
#785 = AXIS2_PLACEMENT_3D('',#786,#787,#788);
#786 = CARTESIAN_POINT('',(-5.30122880725,-110.8908330798,
    44.257319259952));
#787 = DIRECTION('',(-0.196300278283,0.,-0.98054382908));
#788 = DIRECTION('',(0.98054382908,0.,-0.196300278283));
#789 = ADVANCED_FACE('',(#790),#801,.F.);
#790 = FACE_BOUND('',#791,.F.);
#791 = EDGE_LOOP('',(#792,#798,#799,#800));
#792 = ORIENTED_EDGE('',*,*,#793,.T.);
#793 = EDGE_CURVE('',#255,#488,#794,.T.);
#794 = LINE('',#795,#796);
#795 = CARTESIAN_POINT('',(-5.90122880725,-110.8908330798,
    44.179957199406));
#796 = VECTOR('',#797,1.);
#797 = DIRECTION('',(0.,1.,0.));
#798 = ORIENTED_EDGE('',*,*,#495,.T.);
#799 = ORIENTED_EDGE('',*,*,#776,.F.);
#800 = ORIENTED_EDGE('',*,*,#262,.F.);
#801 = PLANE('',#802);
#802 = AXIS2_PLACEMENT_3D('',#803,#804,#805);
#803 = CARTESIAN_POINT('',(-5.90122880725,-110.8908330798,
    44.179957199406));
#804 = DIRECTION('',(0.127878181544,0.,-0.991789882326));
#805 = DIRECTION('',(0.991789882326,0.,0.127878181544));
#806 = ADVANCED_FACE('',(#807),#818,.F.);
#807 = FACE_BOUND('',#808,.F.);
#808 = EDGE_LOOP('',(#809,#815,#816,#817));
#809 = ORIENTED_EDGE('',*,*,#810,.T.);
#810 = EDGE_CURVE('',#247,#480,#811,.T.);
#811 = LINE('',#812,#813);
#812 = CARTESIAN_POINT('',(-6.50122880725,-110.8908330798,
    44.251200485538));
#813 = VECTOR('',#814,1.);
#814 = DIRECTION('',(0.,1.,0.));
#815 = ORIENTED_EDGE('',*,*,#487,.T.);
#816 = ORIENTED_EDGE('',*,*,#793,.F.);
#817 = ORIENTED_EDGE('',*,*,#254,.F.);
#818 = PLANE('',#819);
#819 = AXIS2_PLACEMENT_3D('',#820,#821,#822);
#820 = CARTESIAN_POINT('',(-6.50122880725,-110.8908330798,
    44.251200485538));
#821 = DIRECTION('',(-0.117910514939,0.,-0.993024224512));
#822 = DIRECTION('',(0.993024224512,0.,-0.117910514939));
#823 = ADVANCED_FACE('',(#824),#835,.F.);
#824 = FACE_BOUND('',#825,.F.);
#825 = EDGE_LOOP('',(#826,#832,#833,#834));
#826 = ORIENTED_EDGE('',*,*,#827,.T.);
#827 = EDGE_CURVE('',#239,#472,#828,.T.);
#828 = LINE('',#829,#830);
#829 = CARTESIAN_POINT('',(-7.10122880725,-110.8908330798,
    44.204188156437));
#830 = VECTOR('',#831,1.);
#831 = DIRECTION('',(0.,1.,0.));
#832 = ORIENTED_EDGE('',*,*,#479,.T.);
#833 = ORIENTED_EDGE('',*,*,#810,.F.);
#834 = ORIENTED_EDGE('',*,*,#246,.F.);
#835 = PLANE('',#836);
#836 = AXIS2_PLACEMENT_3D('',#837,#838,#839);
#837 = CARTESIAN_POINT('',(-7.10122880725,-110.8908330798,
    44.204188156437));
#838 = DIRECTION('',(7.811446347507E-02,0.,-0.996944396943));
#839 = DIRECTION('',(0.996944396943,0.,7.811446347507E-02));
#840 = ADVANCED_FACE('',(#841),#852,.F.);
#841 = FACE_BOUND('',#842,.F.);
#842 = EDGE_LOOP('',(#843,#849,#850,#851));
#843 = ORIENTED_EDGE('',*,*,#844,.T.);
#844 = EDGE_CURVE('',#231,#464,#845,.T.);
#845 = LINE('',#846,#847);
#846 = CARTESIAN_POINT('',(-7.70122880725,-110.8908330798,
    43.784693527531));
#847 = VECTOR('',#848,1.);
#848 = DIRECTION('',(0.,1.,0.));
#849 = ORIENTED_EDGE('',*,*,#471,.T.);
#850 = ORIENTED_EDGE('',*,*,#827,.F.);
#851 = ORIENTED_EDGE('',*,*,#238,.F.);
#852 = PLANE('',#853);
#853 = AXIS2_PLACEMENT_3D('',#854,#855,#856);
#854 = CARTESIAN_POINT('',(-7.70122880725,-110.8908330798,
    43.784693527531));
#855 = DIRECTION('',(0.57299896412,0.,-0.819556091501));
#856 = DIRECTION('',(0.819556091501,0.,0.57299896412));
#857 = ADVANCED_FACE('',(#858),#869,.F.);
#858 = FACE_BOUND('',#859,.F.);
#859 = EDGE_LOOP('',(#860,#866,#867,#868));
#860 = ORIENTED_EDGE('',*,*,#861,.T.);
#861 = EDGE_CURVE('',#223,#456,#862,.T.);
#862 = LINE('',#863,#864);
#863 = CARTESIAN_POINT('',(-8.30122880725,-110.8908330798,
    43.002695846867));
#864 = VECTOR('',#865,1.);
#865 = DIRECTION('',(0.,1.,0.));
#866 = ORIENTED_EDGE('',*,*,#463,.T.);
#867 = ORIENTED_EDGE('',*,*,#844,.F.);
#868 = ORIENTED_EDGE('',*,*,#230,.F.);
#869 = PLANE('',#870);
#870 = AXIS2_PLACEMENT_3D('',#871,#872,#873);
#871 = CARTESIAN_POINT('',(-8.30122880725,-110.8908330798,
    43.002695846867));
#872 = DIRECTION('',(0.793376822461,0.,-0.608730825227));
#873 = DIRECTION('',(0.608730825227,0.,0.793376822461));
#874 = ADVANCED_FACE('',(#875),#886,.F.);
#875 = FACE_BOUND('',#876,.F.);
#876 = EDGE_LOOP('',(#877,#883,#884,#885));
#877 = ORIENTED_EDGE('',*,*,#878,.T.);
#878 = EDGE_CURVE('',#215,#448,#879,.T.);
#879 = LINE('',#880,#881);
#880 = CARTESIAN_POINT('',(-8.90122880725,-110.8908330798,
    41.215327072452));
#881 = VECTOR('',#882,1.);
#882 = DIRECTION('',(0.,1.,0.));
#883 = ORIENTED_EDGE('',*,*,#455,.T.);
#884 = ORIENTED_EDGE('',*,*,#861,.F.);
#885 = ORIENTED_EDGE('',*,*,#222,.F.);
#886 = PLANE('',#887);
#887 = AXIS2_PLACEMENT_3D('',#888,#889,#890);
#888 = CARTESIAN_POINT('',(-8.90122880725,-110.8908330798,
    41.215327072452));
#889 = DIRECTION('',(0.948011215307,0.,-0.318236917488));
#890 = DIRECTION('',(0.318236917488,0.,0.948011215307));
#891 = ADVANCED_FACE('',(#892),#903,.F.);
#892 = FACE_BOUND('',#893,.F.);
#893 = EDGE_LOOP('',(#894,#900,#901,#902));
#894 = ORIENTED_EDGE('',*,*,#895,.T.);
#895 = EDGE_CURVE('',#207,#440,#896,.T.);
#896 = LINE('',#897,#898);
#897 = CARTESIAN_POINT('',(-9.50122880725,-110.8908330798,
    39.639414596867));
#898 = VECTOR('',#899,1.);
#899 = DIRECTION('',(0.,1.,0.));
#900 = ORIENTED_EDGE('',*,*,#447,.T.);
#901 = ORIENTED_EDGE('',*,*,#878,.F.);
#902 = ORIENTED_EDGE('',*,*,#214,.F.);
#903 = PLANE('',#904);
#904 = AXIS2_PLACEMENT_3D('',#905,#906,#907);
#905 = CARTESIAN_POINT('',(-9.50122880725,-110.8908330798,
    39.639414596867));
#906 = DIRECTION('',(0.934556295339,0.,-0.355815304397));
#907 = DIRECTION('',(0.355815304397,0.,0.934556295339));
#908 = ADVANCED_FACE('',(#909),#920,.F.);
#909 = FACE_BOUND('',#910,.F.);
#910 = EDGE_LOOP('',(#911,#917,#918,#919));
#911 = ORIENTED_EDGE('',*,*,#912,.T.);
#912 = EDGE_CURVE('',#199,#432,#913,.T.);
#913 = LINE('',#914,#915);
#914 = CARTESIAN_POINT('',(-10.10122880725,-110.8908330798,
    37.948160934757));
#915 = VECTOR('',#916,1.);
#916 = DIRECTION('',(0.,1.,0.));
#917 = ORIENTED_EDGE('',*,*,#439,.T.);
#918 = ORIENTED_EDGE('',*,*,#895,.F.);
#919 = ORIENTED_EDGE('',*,*,#206,.F.);
#920 = PLANE('',#921);
#921 = AXIS2_PLACEMENT_3D('',#922,#923,#924);
#922 = CARTESIAN_POINT('',(-10.10122880725,-110.8908330798,
    37.948160934757));
#923 = DIRECTION('',(0.94244921622,0.,-0.334349330559));
#924 = DIRECTION('',(0.334349330559,0.,0.94244921622));
#925 = ADVANCED_FACE('',(#926),#937,.F.);
#926 = FACE_BOUND('',#927,.F.);
#927 = EDGE_LOOP('',(#928,#934,#935,#936));
#928 = ORIENTED_EDGE('',*,*,#929,.T.);
#929 = EDGE_CURVE('',#191,#424,#930,.T.);
#930 = LINE('',#931,#932);
#931 = CARTESIAN_POINT('',(-10.70122880725,-110.8908330798,
    36.756129074406));
#932 = VECTOR('',#933,1.);
#933 = DIRECTION('',(0.,1.,0.));
#934 = ORIENTED_EDGE('',*,*,#431,.T.);
#935 = ORIENTED_EDGE('',*,*,#912,.F.);
#936 = ORIENTED_EDGE('',*,*,#198,.F.);
#937 = PLANE('',#938);
#938 = AXIS2_PLACEMENT_3D('',#939,#940,#941);
#939 = CARTESIAN_POINT('',(-10.70122880725,-110.8908330798,
    36.756129074406));
#940 = DIRECTION('',(0.893229842946,0.,-0.449600319919));
#941 = DIRECTION('',(0.449600319919,0.,0.893229842946));
#942 = ADVANCED_FACE('',(#943),#954,.F.);
#943 = FACE_BOUND('',#944,.F.);
#944 = EDGE_LOOP('',(#945,#951,#952,#953));
#945 = ORIENTED_EDGE('',*,*,#946,.T.);
#946 = EDGE_CURVE('',#183,#416,#947,.T.);
#947 = LINE('',#948,#949);
#948 = CARTESIAN_POINT('',(-11.30122880725,-110.8908330798,
    36.099329757999));
#949 = VECTOR('',#950,1.);
#950 = DIRECTION('',(0.,1.,0.));
#951 = ORIENTED_EDGE('',*,*,#423,.T.);
#952 = ORIENTED_EDGE('',*,*,#929,.F.);
#953 = ORIENTED_EDGE('',*,*,#190,.F.);
#954 = PLANE('',#955);
#955 = AXIS2_PLACEMENT_3D('',#956,#957,#958);
#956 = CARTESIAN_POINT('',(-11.30122880725,-110.8908330798,
    36.099329757999));
#957 = DIRECTION('',(0.738309898575,0.,-0.674461632464));
#958 = DIRECTION('',(0.674461632464,0.,0.738309898575));
#959 = ADVANCED_FACE('',(#960),#971,.F.);
#960 = FACE_BOUND('',#961,.F.);
#961 = EDGE_LOOP('',(#962,#968,#969,#970));
#962 = ORIENTED_EDGE('',*,*,#963,.T.);
#963 = EDGE_CURVE('',#175,#408,#964,.T.);
#964 = LINE('',#965,#966);
#965 = CARTESIAN_POINT('',(-11.90122880725,-110.8908330798,
    35.13202934296));
#966 = VECTOR('',#967,1.);
#967 = DIRECTION('',(0.,1.,0.));
#968 = ORIENTED_EDGE('',*,*,#415,.T.);
#969 = ORIENTED_EDGE('',*,*,#946,.F.);
#970 = ORIENTED_EDGE('',*,*,#182,.F.);
#971 = PLANE('',#972);
#972 = AXIS2_PLACEMENT_3D('',#973,#974,#975);
#973 = CARTESIAN_POINT('',(-11.90122880725,-110.8908330798,
    35.13202934296));
#974 = DIRECTION('',(0.849794971557,0.,-0.527113371407));
#975 = DIRECTION('',(0.527113371407,0.,0.849794971557));
#976 = ADVANCED_FACE('',(#977),#988,.F.);
#977 = FACE_BOUND('',#978,.F.);
#978 = EDGE_LOOP('',(#979,#985,#986,#987));
#979 = ORIENTED_EDGE('',*,*,#980,.T.);
#980 = EDGE_CURVE('',#167,#400,#981,.T.);
#981 = LINE('',#982,#983);
#982 = CARTESIAN_POINT('',(-12.50122880725,-110.8908330798,
    34.242808151554));
#983 = VECTOR('',#984,1.);
#984 = DIRECTION('',(0.,1.,0.));
#985 = ORIENTED_EDGE('',*,*,#407,.T.);
#986 = ORIENTED_EDGE('',*,*,#963,.F.);
#987 = ORIENTED_EDGE('',*,*,#174,.F.);
#988 = PLANE('',#989);
#989 = AXIS2_PLACEMENT_3D('',#990,#991,#992);
#990 = CARTESIAN_POINT('',(-12.50122880725,-110.8908330798,
    34.242808151554));
#991 = DIRECTION('',(0.828945625044,0.,-0.559329197092));
#992 = DIRECTION('',(0.559329197092,0.,0.828945625044));
#993 = ADVANCED_FACE('',(#994),#1005,.F.);
#994 = FACE_BOUND('',#995,.F.);
#995 = EDGE_LOOP('',(#996,#1002,#1003,#1004));
#996 = ORIENTED_EDGE('',*,*,#997,.T.);
#997 = EDGE_CURVE('',#159,#392,#998,.T.);
#998 = LINE('',#999,#1000);
#999 = CARTESIAN_POINT('',(-13.10122880725,-110.8908330798,
    32.415751266788));
#1000 = VECTOR('',#1001,1.);
#1001 = DIRECTION('',(0.,1.,0.));
#1002 = ORIENTED_EDGE('',*,*,#399,.T.);
#1003 = ORIENTED_EDGE('',*,*,#980,.F.);
#1004 = ORIENTED_EDGE('',*,*,#166,.F.);
#1005 = PLANE('',#1006);
#1006 = AXIS2_PLACEMENT_3D('',#1007,#1008,#1009);
#1007 = CARTESIAN_POINT('',(-13.10122880725,-110.8908330798,
    32.415751266788));
#1008 = DIRECTION('',(0.950080882787,0.,-0.312003711776));
#1009 = DIRECTION('',(0.312003711776,0.,0.950080882787));
#1010 = ADVANCED_FACE('',(#1011),#1022,.F.);
#1011 = FACE_BOUND('',#1012,.F.);
#1012 = EDGE_LOOP('',(#1013,#1019,#1020,#1021));
#1013 = ORIENTED_EDGE('',*,*,#1014,.T.);
#1014 = EDGE_CURVE('',#151,#384,#1015,.T.);
#1015 = LINE('',#1016,#1017);
#1016 = CARTESIAN_POINT('',(-13.70122880725,-110.8908330798,
    29.077235031437));
#1017 = VECTOR('',#1018,1.);
#1018 = DIRECTION('',(0.,1.,0.));
#1019 = ORIENTED_EDGE('',*,*,#391,.T.);
#1020 = ORIENTED_EDGE('',*,*,#997,.F.);
#1021 = ORIENTED_EDGE('',*,*,#158,.F.);
#1022 = PLANE('',#1023);
#1023 = AXIS2_PLACEMENT_3D('',#1024,#1025,#1026);
#1024 = CARTESIAN_POINT('',(-13.70122880725,-110.8908330798,
    29.077235031437));
#1025 = DIRECTION('',(0.984231240684,0.,-0.176886587568));
#1026 = DIRECTION('',(0.176886587568,0.,0.984231240684));
#1027 = ADVANCED_FACE('',(#1028),#1039,.F.);
#1028 = FACE_BOUND('',#1029,.F.);
#1029 = EDGE_LOOP('',(#1030,#1036,#1037,#1038));
#1030 = ORIENTED_EDGE('',*,*,#1031,.T.);
#1031 = EDGE_CURVE('',#143,#376,#1032,.T.);
#1032 = LINE('',#1033,#1034);
#1033 = CARTESIAN_POINT('',(-14.30122880725,-110.8908330798,
    26.127787399601));
#1034 = VECTOR('',#1035,1.);
#1035 = DIRECTION('',(0.,1.,0.));
#1036 = ORIENTED_EDGE('',*,*,#383,.T.);
#1037 = ORIENTED_EDGE('',*,*,#1014,.F.);
#1038 = ORIENTED_EDGE('',*,*,#150,.F.);
#1039 = PLANE('',#1040);
#1040 = AXIS2_PLACEMENT_3D('',#1041,#1042,#1043);
#1041 = CARTESIAN_POINT('',(-14.30122880725,-110.8908330798,
    26.127787399601));
#1042 = DIRECTION('',(0.979929371456,0.,-0.199344994814));
#1043 = DIRECTION('',(0.199344994814,0.,0.979929371456));
#1044 = ADVANCED_FACE('',(#1045),#1051,.F.);
#1045 = FACE_BOUND('',#1046,.F.);
#1046 = EDGE_LOOP('',(#1047,#1048,#1049,#1050));
#1047 = ORIENTED_EDGE('',*,*,#608,.T.);
#1048 = ORIENTED_EDGE('',*,*,#375,.T.);
#1049 = ORIENTED_EDGE('',*,*,#1031,.F.);
#1050 = ORIENTED_EDGE('',*,*,#142,.F.);
#1051 = PLANE('',#1052);
#1052 = AXIS2_PLACEMENT_3D('',#1053,#1054,#1055);
#1053 = CARTESIAN_POINT('',(-14.90122880725,-110.8908330798,
    22.121348190617));
#1054 = DIRECTION('',(0.988971301919,0.,-0.148107271869));
#1055 = DIRECTION('',(0.148107271869,0.,0.988971301919));
#1056 = ( GEOMETRIC_REPRESENTATION_CONTEXT(3)
GLOBAL_UNCERTAINTY_ASSIGNED_CONTEXT((#1060))
GLOBAL_UNIT_ASSIGNED_CONTEXT((#1057,#1058,#1059)) REPRESENTATION_CONTEXT
('Context #1','3D Context with UNIT and UNCERTAINTY') );
#1057 = ( LENGTH_UNIT() NAMED_UNIT(*) SI_UNIT(.MILLI.,.METRE.) );
#1058 = ( NAMED_UNIT(*) PLANE_ANGLE_UNIT() SI_UNIT($,.RADIAN.) );
#1059 = ( NAMED_UNIT(*) SI_UNIT($,.STERADIAN.) SOLID_ANGLE_UNIT() );
#1060 = UNCERTAINTY_MEASURE_WITH_UNIT(LENGTH_MEASURE(1.E-07),#1057,
  'distance_accuracy_value','confusion accuracy');
#1061 = PRODUCT_RELATED_PRODUCT_CATEGORY('part',$,(#7));
ENDSEC;
END-ISO-10303-21;
